<svg width="2560" height="1440" viewBox="0 0 2560 1440" fill="none" xmlns="http://www.w3.org/2000/svg">
<path opacity="0.1" d="M-3.59961 28.5216L17.6568 49.7719M17.6568 49.7719L38.9131 71.0221M17.6568 49.7719L38.9131 28.5216M17.6568 49.7719L-3.59961 71.0221M-3.59961 174.109L17.6568 195.359M17.6568 195.359L38.9131 216.609M17.6568 195.359L38.9131 174.109M17.6568 195.359L-3.59961 216.609M142.029 28.5216L163.285 49.7719M163.285 49.7719L184.542 71.0221M163.285 49.7719L184.542 28.5216M163.285 49.7719L142.029 71.0221M142.029 174.109L163.285 195.359M163.285 195.359L184.542 216.609M163.285 195.359L184.542 174.109M163.285 195.359L142.029 216.609M287.658 28.5216L308.914 49.7719M308.914 49.7719L330.17 71.0221M308.914 49.7719L330.17 28.5216M308.914 49.7719L287.658 71.0221M287.658 174.109L308.914 195.359M308.914 195.359L330.17 216.609M308.914 195.359L330.17 174.109M308.914 195.359L287.658 216.609M433.286 28.5216L454.543 49.7719M454.543 49.7719L475.799 71.0221M454.543 49.7719L475.799 28.5216M454.543 49.7719L433.286 71.0221M433.286 174.109L454.543 195.359M454.543 195.359L475.799 216.609M454.543 195.359L475.799 174.109M454.543 195.359L433.286 216.609M578.915 28.5216L600.171 49.7719M600.171 49.7719L621.428 71.0221M600.171 49.7719L621.428 28.5216M600.171 49.7719L578.915 71.0221M578.915 174.109L600.171 195.359M600.171 195.359L621.428 216.609M600.171 195.359L621.428 174.109M600.171 195.359L578.915 216.609M724.544 28.5216L745.8 49.7719M745.8 49.7719L767.056 71.0221M745.8 49.7719L767.056 28.5216M745.8 49.7719L724.544 71.0221M724.544 174.109L745.8 195.359M745.8 195.359L767.056 216.609M745.8 195.359L767.056 174.109M745.8 195.359L724.544 216.609M870.172 28.5216L891.428 49.7719M891.428 49.7719L912.685 71.0221M891.428 49.7719L912.685 28.5216M891.428 49.7719L870.172 71.0221M870.172 174.109L891.428 195.359M891.428 195.359L912.685 216.609M891.428 195.359L912.685 174.109M891.428 195.359L870.172 216.609M1015.8 28.5216L1037.06 49.7719M1037.06 49.7719L1058.31 71.0221M1037.06 49.7719L1058.31 28.5216M1037.06 49.7719L1015.8 71.0221M1015.8 174.109L1037.06 195.359M1037.06 195.359L1058.31 216.609M1037.06 195.359L1058.31 174.109M1037.06 195.359L1015.8 216.609M1161.43 28.5216L1182.69 49.7719M1182.69 49.7719L1203.94 71.0221M1182.69 49.7719L1203.94 28.5216M1182.69 49.7719L1161.43 71.0221M1161.43 174.109L1182.69 195.359M1182.69 195.359L1203.94 216.609M1182.69 195.359L1203.94 174.109M1182.69 195.359L1161.43 216.609M-3.59961 319.695L17.6568 340.946M17.6568 340.946L38.9131 362.196M17.6568 340.946L38.9131 319.695M17.6568 340.946L-3.59961 362.196M-3.59961 465.282L17.6568 486.533M17.6568 486.533L38.9131 507.783M17.6568 486.533L38.9131 465.282M17.6568 486.533L-3.59961 507.783M-3.59961 610.869L17.6568 632.12M17.6568 632.12L38.9131 653.37M17.6568 632.12L38.9131 610.869M17.6568 632.12L-3.59961 653.37M-3.59961 756.456L17.6568 777.707M17.6568 777.707L38.9131 798.957M17.6568 777.707L38.9131 756.456M17.6568 777.707L-3.59961 798.957M142.029 319.695L163.285 340.946M163.285 340.946L184.542 362.196M163.285 340.946L184.542 319.695M163.285 340.946L142.029 362.196M142.029 465.282L163.285 486.533M163.285 486.533L184.542 507.783M163.285 486.533L184.542 465.282M163.285 486.533L142.029 507.783M142.029 610.869L163.285 632.12M163.285 632.12L184.542 653.37M163.285 632.12L184.542 610.869M163.285 632.12L142.029 653.37M142.029 756.456L163.285 777.707M163.285 777.707L184.542 798.957M163.285 777.707L184.542 756.456M163.285 777.707L142.029 798.957M287.658 319.695L308.914 340.946M308.914 340.946L330.17 362.196M308.914 340.946L330.17 319.695M308.914 340.946L287.658 362.196M287.658 465.282L308.914 486.533M308.914 486.533L330.17 507.783M308.914 486.533L330.17 465.282M308.914 486.533L287.658 507.783M287.658 610.869L308.914 632.12M308.914 632.12L330.17 653.37M308.914 632.12L330.17 610.869M308.914 632.12L287.658 653.37M287.658 756.456L308.914 777.707M308.914 777.707L330.17 798.957M308.914 777.707L330.17 756.456M308.914 777.707L287.658 798.957M433.286 319.695L454.543 340.946M454.543 340.946L475.799 362.196M454.543 340.946L475.799 319.695M454.543 340.946L433.286 362.196M433.286 465.282L454.543 486.533M454.543 486.533L475.799 507.783M454.543 486.533L475.799 465.282M454.543 486.533L433.286 507.783M433.286 610.869L454.543 632.12M454.543 632.12L475.799 653.37M454.543 632.12L475.799 610.869M454.543 632.12L433.286 653.37M433.286 756.456L454.543 777.707M454.543 777.707L475.799 798.957M454.543 777.707L475.799 756.456M454.543 777.707L433.286 798.957M578.915 319.695L600.171 340.946M600.171 340.946L621.428 362.196M600.171 340.946L621.428 319.695M600.171 340.946L578.915 362.196M578.915 465.282L600.171 486.533M600.171 486.533L621.428 507.783M600.171 486.533L621.428 465.282M600.171 486.533L578.915 507.783M578.915 610.869L600.171 632.12M600.171 632.12L621.428 653.37M600.171 632.12L621.428 610.869M600.171 632.12L578.915 653.37M578.915 756.456L600.171 777.707M600.171 777.707L621.428 798.957M600.171 777.707L621.428 756.456M600.171 777.707L578.915 798.957M724.544 319.695L745.8 340.946M745.8 340.946L767.056 362.196M745.8 340.946L767.056 319.695M745.8 340.946L724.544 362.196M724.544 465.282L745.8 486.533M745.8 486.533L767.056 507.783M745.8 486.533L767.056 465.282M745.8 486.533L724.544 507.783M724.544 610.869L745.8 632.12M745.8 632.12L767.056 653.37M745.8 632.12L767.056 610.869M745.8 632.12L724.544 653.37M724.544 756.456L745.8 777.707M745.8 777.707L767.056 798.957M745.8 777.707L767.056 756.456M745.8 777.707L724.544 798.957M870.172 319.695L891.428 340.946M891.428 340.946L912.685 362.196M891.428 340.946L912.685 319.695M891.428 340.946L870.172 362.196M870.172 465.282L891.428 486.533M891.428 486.533L912.685 507.783M891.428 486.533L912.685 465.282M891.428 486.533L870.172 507.783M870.172 610.869L891.428 632.12M891.428 632.12L912.685 653.37M891.428 632.12L912.685 610.869M891.428 632.12L870.172 653.37M870.172 756.456L891.428 777.707M891.428 777.707L912.685 798.957M891.428 777.707L912.685 756.456M891.428 777.707L870.172 798.957M1015.8 319.695L1037.06 340.946M1037.06 340.946L1058.31 362.196M1037.06 340.946L1058.31 319.695M1037.06 340.946L1015.8 362.196M1015.8 465.282L1037.06 486.533M1037.06 486.533L1058.31 507.783M1037.06 486.533L1058.31 465.282M1037.06 486.533L1015.8 507.783M1015.8 610.869L1037.06 632.12M1037.06 632.12L1058.31 653.37M1037.06 632.12L1058.31 610.869M1037.06 632.12L1015.8 653.37M1015.8 756.456L1037.06 777.707M1037.06 777.707L1058.31 798.957M1037.06 777.707L1058.31 756.456M1037.06 777.707L1015.8 798.957M1161.43 319.695L1182.69 340.946M1182.69 340.946L1203.94 362.196M1182.69 340.946L1203.94 319.695M1182.69 340.946L1161.43 362.196M1161.43 465.282L1182.69 486.533M1182.69 486.533L1203.94 507.783M1182.69 486.533L1203.94 465.282M1182.69 486.533L1161.43 507.783M1161.43 610.869L1182.69 632.12M1182.69 632.12L1203.94 653.37M1182.69 632.12L1203.94 610.869M1182.69 632.12L1161.43 653.37M1161.43 756.456L1182.69 777.707M1182.69 777.707L1203.94 798.957M1182.69 777.707L1203.94 756.456M1182.69 777.707L1161.43 798.957M1307.06 28.5216L1328.31 49.7719M1328.31 49.7719L1349.57 71.0221M1328.31 49.7719L1349.57 28.5216M1328.31 49.7719L1307.06 71.0221M1307.06 174.109L1328.31 195.359M1328.31 195.359L1349.57 216.609M1328.31 195.359L1349.57 174.109M1328.31 195.359L1307.06 216.609M1452.69 28.5216L1473.94 49.7719M1473.94 49.7719L1495.2 71.0221M1473.94 49.7719L1495.2 28.5216M1473.94 49.7719L1452.69 71.0221M1452.69 174.109L1473.94 195.359M1473.94 195.359L1495.2 216.609M1473.94 195.359L1495.2 174.109M1473.94 195.359L1452.69 216.609M1598.32 28.5216L1619.57 49.7719M1619.57 49.7719L1640.83 71.0221M1619.57 49.7719L1640.83 28.5216M1619.57 49.7719L1598.32 71.0221M1598.32 174.109L1619.57 195.359M1619.57 195.359L1640.83 216.609M1619.57 195.359L1640.83 174.109M1619.57 195.359L1598.32 216.609M1743.94 28.5216L1765.2 49.7719M1765.2 49.7719L1786.46 71.0221M1765.2 49.7719L1786.46 28.5216M1765.2 49.7719L1743.94 71.0221M1743.94 174.109L1765.2 195.359M1765.2 195.359L1786.46 216.609M1765.2 195.359L1786.46 174.109M1765.2 195.359L1743.94 216.609M1889.57 28.5216L1910.83 49.7719M1910.83 49.7719L1932.08 71.0221M1910.83 49.7719L1932.08 28.5216M1910.83 49.7719L1889.57 71.0221M1889.57 174.109L1910.83 195.359M1910.83 195.359L1932.08 216.609M1910.83 195.359L1932.08 174.109M1910.83 195.359L1889.57 216.609M2035.2 28.5216L2056.46 49.7719M2056.46 49.7719L2077.71 71.0221M2056.46 49.7719L2077.71 28.5216M2056.46 49.7719L2035.2 71.0221M2035.2 174.109L2056.46 195.359M2056.46 195.359L2077.71 216.609M2056.46 195.359L2077.71 174.109M2056.46 195.359L2035.2 216.609M2180.83 28.5216L2202.09 49.7719M2202.09 49.7719L2223.34 71.0221M2202.09 49.7719L2223.34 28.5216M2202.09 49.7719L2180.83 71.0221M2180.83 174.109L2202.09 195.359M2202.09 195.359L2223.34 216.609M2202.09 195.359L2223.34 174.109M2202.09 195.359L2180.83 216.609M2326.46 28.5216L2347.71 49.7719M2347.71 49.7719L2368.97 71.0221M2347.71 49.7719L2368.97 28.5216M2347.71 49.7719L2326.46 71.0221M2326.46 174.109L2347.71 195.359M2347.71 195.359L2368.97 216.609M2347.71 195.359L2368.97 174.109M2347.71 195.359L2326.46 216.609M2472.09 28.5216L2493.34 49.7719M2493.34 49.7719L2514.6 71.0221M2493.34 49.7719L2514.6 28.5216M2493.34 49.7719L2472.09 71.0221M2472.09 174.109L2493.34 195.359M2493.34 195.359L2514.6 216.609M2493.34 195.359L2514.6 174.109M2493.34 195.359L2472.09 216.609M1307.06 319.695L1328.31 340.946M1328.31 340.946L1349.57 362.196M1328.31 340.946L1349.57 319.695M1328.31 340.946L1307.06 362.196M1307.06 465.282L1328.31 486.533M1328.31 486.533L1349.57 507.783M1328.31 486.533L1349.57 465.282M1328.31 486.533L1307.06 507.783M1307.06 610.869L1328.31 632.12M1328.31 632.12L1349.57 653.37M1328.31 632.12L1349.57 610.869M1328.31 632.12L1307.06 653.37M1307.06 756.456L1328.31 777.707M1328.31 777.707L1349.57 798.957M1328.31 777.707L1349.57 756.456M1328.31 777.707L1307.06 798.957M1452.69 319.695L1473.94 340.946M1473.94 340.946L1495.2 362.196M1473.94 340.946L1495.2 319.695M1473.94 340.946L1452.69 362.196M1452.69 465.282L1473.94 486.533M1473.94 486.533L1495.2 507.783M1473.94 486.533L1495.2 465.282M1473.94 486.533L1452.69 507.783M1452.69 610.869L1473.94 632.12M1473.94 632.12L1495.2 653.37M1473.94 632.12L1495.2 610.869M1473.94 632.12L1452.69 653.37M1452.69 756.456L1473.94 777.707M1473.94 777.707L1495.2 798.957M1473.94 777.707L1495.2 756.456M1473.94 777.707L1452.69 798.957M1598.32 319.695L1619.57 340.946M1619.57 340.946L1640.83 362.196M1619.57 340.946L1640.83 319.695M1619.57 340.946L1598.32 362.196M1598.32 465.282L1619.57 486.533M1619.57 486.533L1640.83 507.783M1619.57 486.533L1640.83 465.282M1619.57 486.533L1598.32 507.783M1598.32 610.869L1619.57 632.12M1619.57 632.12L1640.83 653.37M1619.57 632.12L1640.83 610.869M1619.57 632.12L1598.32 653.37M1598.32 756.456L1619.57 777.707M1619.57 777.707L1640.83 798.957M1619.57 777.707L1640.83 756.456M1619.57 777.707L1598.32 798.957M1743.94 319.695L1765.2 340.946M1765.2 340.946L1786.46 362.196M1765.2 340.946L1786.46 319.695M1765.2 340.946L1743.94 362.196M1743.94 465.282L1765.2 486.533M1765.2 486.533L1786.46 507.783M1765.2 486.533L1786.46 465.282M1765.2 486.533L1743.94 507.783M1743.94 610.869L1765.2 632.12M1765.2 632.12L1786.46 653.37M1765.2 632.12L1786.46 610.869M1765.2 632.12L1743.94 653.37M1743.94 756.456L1765.2 777.707M1765.2 777.707L1786.46 798.957M1765.2 777.707L1786.46 756.456M1765.2 777.707L1743.94 798.957M1889.57 319.695L1910.83 340.946M1910.83 340.946L1932.08 362.196M1910.83 340.946L1932.08 319.695M1910.83 340.946L1889.57 362.196M1889.57 465.282L1910.83 486.533M1910.83 486.533L1932.08 507.783M1910.83 486.533L1932.08 465.282M1910.83 486.533L1889.57 507.783M1889.57 610.869L1910.83 632.12M1910.83 632.12L1932.08 653.37M1910.83 632.12L1932.08 610.869M1910.83 632.12L1889.57 653.37M1889.57 756.456L1910.83 777.707M1910.83 777.707L1932.08 798.957M1910.83 777.707L1932.08 756.456M1910.83 777.707L1889.57 798.957M2035.2 319.695L2056.46 340.946M2056.46 340.946L2077.71 362.196M2056.46 340.946L2077.71 319.695M2056.46 340.946L2035.2 362.196M2035.2 465.282L2056.46 486.533M2056.46 486.533L2077.71 507.783M2056.46 486.533L2077.71 465.282M2056.46 486.533L2035.2 507.783M2035.2 610.869L2056.46 632.12M2056.46 632.12L2077.71 653.37M2056.46 632.12L2077.71 610.869M2056.46 632.12L2035.2 653.37M2035.2 756.456L2056.46 777.707M2056.46 777.707L2077.71 798.957M2056.46 777.707L2077.71 756.456M2056.46 777.707L2035.2 798.957M2180.83 319.695L2202.09 340.946M2202.09 340.946L2223.34 362.196M2202.09 340.946L2223.34 319.695M2202.09 340.946L2180.83 362.196M2180.83 465.282L2202.09 486.533M2202.09 486.533L2223.34 507.783M2202.09 486.533L2223.34 465.282M2202.09 486.533L2180.83 507.783M2180.83 610.869L2202.09 632.12M2202.09 632.12L2223.34 653.37M2202.09 632.12L2223.34 610.869M2202.09 632.12L2180.83 653.37M2180.83 756.456L2202.09 777.707M2202.09 777.707L2223.34 798.957M2202.09 777.707L2223.34 756.456M2202.09 777.707L2180.83 798.957M2326.46 319.695L2347.71 340.946M2347.71 340.946L2368.97 362.196M2347.71 340.946L2368.97 319.695M2347.71 340.946L2326.46 362.196M2326.46 465.282L2347.71 486.533M2347.71 486.533L2368.97 507.783M2347.71 486.533L2368.97 465.282M2347.71 486.533L2326.46 507.783M2326.46 610.869L2347.71 632.12M2347.71 632.12L2368.97 653.37M2347.71 632.12L2368.97 610.869M2347.71 632.12L2326.46 653.37M2326.46 756.456L2347.71 777.707M2347.71 777.707L2368.97 798.957M2347.71 777.707L2368.97 756.456M2347.71 777.707L2326.46 798.957M2472.09 319.695L2493.34 340.946M2493.34 340.946L2514.6 362.196M2493.34 340.946L2514.6 319.695M2493.34 340.946L2472.09 362.196M2472.09 465.282L2493.34 486.533M2493.34 486.533L2514.6 507.783M2493.34 486.533L2514.6 465.282M2493.34 486.533L2472.09 507.783M2472.09 610.869L2493.34 632.12M2493.34 632.12L2514.6 653.37M2493.34 632.12L2514.6 610.869M2493.34 632.12L2472.09 653.37M2472.09 756.456L2493.34 777.707M2493.34 777.707L2514.6 798.957M2493.34 777.707L2514.6 756.456M2493.34 777.707L2472.09 798.957M-3.59961 902.043L17.6568 923.293M17.6568 923.293L38.9131 944.544M17.6568 923.293L38.9131 902.043M17.6568 923.293L-3.59961 944.544M-3.59961 1047.63L17.6568 1068.88M17.6568 1068.88L38.9131 1090.13M17.6568 1068.88L38.9131 1047.63M17.6568 1068.88L-3.59961 1090.13M-3.59961 1193.22L17.6568 1214.47M17.6568 1214.47L38.9131 1235.72M17.6568 1214.47L38.9131 1193.22M17.6568 1214.47L-3.59961 1235.72M-3.59961 1338.8L17.6568 1360.05M17.6568 1360.05L38.9131 1381.3M17.6568 1360.05L38.9131 1338.8M17.6568 1360.05L-3.59961 1381.3M142.029 902.043L163.285 923.293M163.285 923.293L184.542 944.544M163.285 923.293L184.542 902.043M163.285 923.293L142.029 944.544M142.029 1047.63L163.285 1068.88M163.285 1068.88L184.542 1090.13M163.285 1068.88L184.542 1047.63M163.285 1068.88L142.029 1090.13M142.029 1193.22L163.285 1214.47M163.285 1214.47L184.542 1235.72M163.285 1214.47L184.542 1193.22M163.285 1214.47L142.029 1235.72M142.029 1338.8L163.285 1360.05M163.285 1360.05L184.542 1381.3M163.285 1360.05L184.542 1338.8M163.285 1360.05L142.029 1381.3M287.658 902.043L308.914 923.293M308.914 923.293L330.17 944.544M308.914 923.293L330.17 902.043M308.914 923.293L287.658 944.544M287.658 1047.63L308.914 1068.88M308.914 1068.88L330.17 1090.13M308.914 1068.88L330.17 1047.63M308.914 1068.88L287.658 1090.13M287.658 1193.22L308.914 1214.47M308.914 1214.47L330.17 1235.72M308.914 1214.47L330.17 1193.22M308.914 1214.47L287.658 1235.72M287.658 1338.8L308.914 1360.05M308.914 1360.05L330.17 1381.3M308.914 1360.05L330.17 1338.8M308.914 1360.05L287.658 1381.3M433.286 902.043L454.543 923.293M454.543 923.293L475.799 944.544M454.543 923.293L475.799 902.043M454.543 923.293L433.286 944.544M433.286 1047.63L454.543 1068.88M454.543 1068.88L475.799 1090.13M454.543 1068.88L475.799 1047.63M454.543 1068.88L433.286 1090.13M433.286 1193.22L454.543 1214.47M454.543 1214.47L475.799 1235.72M454.543 1214.47L475.799 1193.22M454.543 1214.47L433.286 1235.72M433.286 1338.8L454.543 1360.05M454.543 1360.05L475.799 1381.3M454.543 1360.05L475.799 1338.8M454.543 1360.05L433.286 1381.3M578.915 902.043L600.171 923.293M600.171 923.293L621.428 944.544M600.171 923.293L621.428 902.043M600.171 923.293L578.915 944.544M578.915 1047.63L600.171 1068.88M600.171 1068.88L621.428 1090.13M600.171 1068.88L621.428 1047.63M600.171 1068.88L578.915 1090.13M578.915 1193.22L600.171 1214.47M600.171 1214.47L621.428 1235.72M600.171 1214.47L621.428 1193.22M600.171 1214.47L578.915 1235.72M578.915 1338.8L600.171 1360.05M600.171 1360.05L621.428 1381.3M600.171 1360.05L621.428 1338.8M600.171 1360.05L578.915 1381.3M724.544 902.043L745.8 923.293M745.8 923.293L767.056 944.544M745.8 923.293L767.056 902.043M745.8 923.293L724.544 944.544M724.544 1047.63L745.8 1068.88M745.8 1068.88L767.056 1090.13M745.8 1068.88L767.056 1047.63M745.8 1068.88L724.544 1090.13M724.544 1193.22L745.8 1214.47M745.8 1214.47L767.056 1235.72M745.8 1214.47L767.056 1193.22M745.8 1214.47L724.544 1235.72M724.544 1338.8L745.8 1360.05M745.8 1360.05L767.056 1381.3M745.8 1360.05L767.056 1338.8M745.8 1360.05L724.544 1381.3M870.172 902.043L891.428 923.293M891.428 923.293L912.685 944.544M891.428 923.293L912.685 902.043M891.428 923.293L870.172 944.544M870.172 1047.63L891.428 1068.88M891.428 1068.88L912.685 1090.13M891.428 1068.88L912.685 1047.63M891.428 1068.88L870.172 1090.13M870.172 1193.22L891.428 1214.47M891.428 1214.47L912.685 1235.72M891.428 1214.47L912.685 1193.22M891.428 1214.47L870.172 1235.72M870.172 1338.8L891.428 1360.05M891.428 1360.05L912.685 1381.3M891.428 1360.05L912.685 1338.8M891.428 1360.05L870.172 1381.3M1015.8 902.043L1037.06 923.293M1037.06 923.293L1058.31 944.544M1037.06 923.293L1058.31 902.043M1037.06 923.293L1015.8 944.544M1015.8 1047.63L1037.06 1068.88M1037.06 1068.88L1058.31 1090.13M1037.06 1068.88L1058.31 1047.63M1037.06 1068.88L1015.8 1090.13M1015.8 1193.22L1037.06 1214.47M1037.06 1214.47L1058.31 1235.72M1037.06 1214.47L1058.31 1193.22M1037.06 1214.47L1015.8 1235.72M1015.8 1338.8L1037.06 1360.05M1037.06 1360.05L1058.31 1381.3M1037.06 1360.05L1058.31 1338.8M1037.06 1360.05L1015.8 1381.3M1161.43 902.043L1182.69 923.293M1182.69 923.293L1203.94 944.544M1182.69 923.293L1203.94 902.043M1182.69 923.293L1161.43 944.544M1161.43 1047.63L1182.69 1068.88M1182.69 1068.88L1203.94 1090.13M1182.69 1068.88L1203.94 1047.63M1182.69 1068.88L1161.43 1090.13M1161.43 1193.22L1182.69 1214.47M1182.69 1214.47L1203.94 1235.72M1182.69 1214.47L1203.94 1193.22M1182.69 1214.47L1161.43 1235.72M1161.43 1338.8L1182.69 1360.05M1182.69 1360.05L1203.94 1381.3M1182.69 1360.05L1203.94 1338.8M1182.69 1360.05L1161.43 1381.3M1307.06 902.043L1328.31 923.293M1328.31 923.293L1349.57 944.544M1328.31 923.293L1349.57 902.043M1328.31 923.293L1307.06 944.544M1307.06 1047.63L1328.31 1068.88M1328.31 1068.88L1349.57 1090.13M1328.31 1068.88L1349.57 1047.63M1328.31 1068.88L1307.06 1090.13M1307.06 1193.22L1328.31 1214.47M1328.31 1214.47L1349.57 1235.72M1328.31 1214.47L1349.57 1193.22M1328.31 1214.47L1307.06 1235.72M1307.06 1338.8L1328.31 1360.05M1328.31 1360.05L1349.57 1381.3M1328.31 1360.05L1349.57 1338.8M1328.31 1360.05L1307.06 1381.3M1452.69 902.043L1473.94 923.293M1473.94 923.293L1495.2 944.544M1473.94 923.293L1495.2 902.043M1473.94 923.293L1452.69 944.544M1452.69 1047.63L1473.94 1068.88M1473.94 1068.88L1495.2 1090.13M1473.94 1068.88L1495.2 1047.63M1473.94 1068.88L1452.69 1090.13M1452.69 1193.22L1473.94 1214.47M1473.94 1214.47L1495.2 1235.72M1473.94 1214.47L1495.2 1193.22M1473.94 1214.47L1452.69 1235.72M1452.69 1338.8L1473.94 1360.05M1473.94 1360.05L1495.2 1381.3M1473.94 1360.05L1495.2 1338.8M1473.94 1360.05L1452.69 1381.3M1598.32 902.043L1619.57 923.293M1619.57 923.293L1640.83 944.544M1619.57 923.293L1640.83 902.043M1619.57 923.293L1598.32 944.544M1598.32 1047.63L1619.57 1068.88M1619.57 1068.88L1640.83 1090.13M1619.57 1068.88L1640.83 1047.63M1619.57 1068.88L1598.32 1090.13M1598.32 1193.22L1619.57 1214.47M1619.57 1214.47L1640.83 1235.72M1619.57 1214.47L1640.83 1193.22M1619.57 1214.47L1598.32 1235.72M1598.32 1338.8L1619.57 1360.05M1619.57 1360.05L1640.83 1381.3M1619.57 1360.05L1640.83 1338.8M1619.57 1360.05L1598.32 1381.3M1743.94 902.043L1765.2 923.293M1765.2 923.293L1786.46 944.544M1765.2 923.293L1786.46 902.043M1765.2 923.293L1743.94 944.544M1743.94 1047.63L1765.2 1068.88M1765.2 1068.88L1786.46 1090.13M1765.2 1068.88L1786.46 1047.63M1765.2 1068.88L1743.94 1090.13M1743.94 1193.22L1765.2 1214.47M1765.2 1214.47L1786.46 1235.72M1765.2 1214.47L1786.46 1193.22M1765.2 1214.47L1743.94 1235.72M1743.94 1338.8L1765.2 1360.05M1765.2 1360.05L1786.46 1381.3M1765.2 1360.05L1786.46 1338.8M1765.2 1360.05L1743.94 1381.3M1889.57 902.043L1910.83 923.293M1910.83 923.293L1932.08 944.544M1910.83 923.293L1932.08 902.043M1910.83 923.293L1889.57 944.544M1889.57 1047.63L1910.83 1068.88M1910.83 1068.88L1932.08 1090.13M1910.83 1068.88L1932.08 1047.63M1910.83 1068.88L1889.57 1090.13M1889.57 1193.22L1910.83 1214.47M1910.83 1214.47L1932.08 1235.72M1910.83 1214.47L1932.08 1193.22M1910.83 1214.47L1889.57 1235.72M1889.57 1338.8L1910.83 1360.05M1910.83 1360.05L1932.08 1381.3M1910.83 1360.05L1932.08 1338.8M1910.83 1360.05L1889.57 1381.3M2035.2 902.043L2056.46 923.293M2056.46 923.293L2077.71 944.544M2056.46 923.293L2077.71 902.043M2056.46 923.293L2035.2 944.544M2035.2 1047.63L2056.46 1068.88M2056.46 1068.88L2077.71 1090.13M2056.46 1068.88L2077.71 1047.63M2056.46 1068.88L2035.2 1090.13M2035.2 1193.22L2056.46 1214.47M2056.46 1214.47L2077.71 1235.72M2056.46 1214.47L2077.71 1193.22M2056.46 1214.47L2035.2 1235.72M2035.2 1338.8L2056.46 1360.05M2056.46 1360.05L2077.71 1381.3M2056.46 1360.05L2077.71 1338.8M2056.46 1360.05L2035.2 1381.3M2180.83 902.043L2202.09 923.293M2202.09 923.293L2223.34 944.544M2202.09 923.293L2223.34 902.043M2202.09 923.293L2180.83 944.544M2180.83 1047.63L2202.09 1068.88M2202.09 1068.88L2223.34 1090.13M2202.09 1068.88L2223.34 1047.63M2202.09 1068.88L2180.83 1090.13M2180.83 1193.22L2202.09 1214.47M2202.09 1214.47L2223.34 1235.72M2202.09 1214.47L2223.34 1193.22M2202.09 1214.47L2180.83 1235.72M2180.83 1338.8L2202.09 1360.05M2202.09 1360.05L2223.34 1381.3M2202.09 1360.05L2223.34 1338.8M2202.09 1360.05L2180.83 1381.3M2326.46 902.043L2347.71 923.293M2347.71 923.293L2368.97 944.544M2347.71 923.293L2368.97 902.043M2347.71 923.293L2326.46 944.544M2326.46 1047.63L2347.71 1068.88M2347.71 1068.88L2368.97 1090.13M2347.71 1068.88L2368.97 1047.63M2347.71 1068.88L2326.46 1090.13M2326.46 1193.22L2347.71 1214.47M2347.71 1214.47L2368.97 1235.72M2347.71 1214.47L2368.97 1193.22M2347.71 1214.47L2326.46 1235.72M2326.46 1338.8L2347.71 1360.05M2347.71 1360.05L2368.97 1381.3M2347.71 1360.05L2368.97 1338.8M2347.71 1360.05L2326.46 1381.3M2472.09 902.043L2493.34 923.293M2493.34 923.293L2514.6 944.544M2493.34 923.293L2514.6 902.043M2493.34 923.293L2472.09 944.544M2472.09 1047.63L2493.34 1068.88M2493.34 1068.88L2514.6 1090.13M2493.34 1068.88L2514.6 1047.63M2493.34 1068.88L2472.09 1090.13M2472.09 1193.22L2493.34 1214.47M2493.34 1214.47L2514.6 1235.72M2493.34 1214.47L2514.6 1193.22M2493.34 1214.47L2472.09 1235.72M2472.09 1338.8L2493.34 1360.05M2493.34 1360.05L2514.6 1381.3M2493.34 1360.05L2514.6 1338.8M2493.34 1360.05L2472.09 1381.3" stroke="url(#paint0_linear_142_255)" stroke-width="4"/>
<g clip-path="url(#clip0_142_255)">
<circle opacity="0.5" cx="1842" cy="720" r="555" stroke="url(#paint1_linear_142_255)" stroke-width="4"/>
<circle opacity="0.5" cx="1842" cy="720" r="905" stroke="url(#paint2_linear_142_255)" stroke-width="4"/>
</g>
<defs>
<linearGradient id="paint0_linear_142_255" x1="-1023" y1="850.499" x2="3534" y2="850.5" gradientUnits="userSpaceOnUse">
<stop/>
<stop offset="0.455575" stop-opacity="0"/>
</linearGradient>
<linearGradient id="paint1_linear_142_255" x1="1842" y1="163" x2="1842" y2="1277" gradientUnits="userSpaceOnUse">
<stop stop-color="#FF7627"/>
<stop offset="1" stop-color="#FFA904"/>
</linearGradient>
<linearGradient id="paint2_linear_142_255" x1="1842" y1="-187" x2="1842" y2="1627" gradientUnits="userSpaceOnUse">
<stop stop-color="#FF7627"/>
<stop offset="1" stop-color="#FFA904"/>
</linearGradient>
<clipPath id="clip0_142_255">
<rect width="2560" height="1440" fill="white"/>
</clipPath>
</defs>
</svg>
