<svg width="444" height="19" viewBox="0 0 444 19" fill="none" xmlns="http://www.w3.org/2000/svg">
<path d="M13.52 2.448C13.712 2.576 13.824 2.744 13.856 2.952C13.888 3.144 13.84 3.336 13.712 3.528C13.6 3.672 13.456 3.752 13.28 3.768C13.104 3.784 12.936 3.752 12.776 3.672C12.168 3.272 11.512 2.96 10.808 2.736C10.12 2.512 9.376 2.4 8.576 2.4C7.6 2.4 6.688 2.576 5.84 2.928C5.008 3.264 4.28 3.76 3.656 4.416C3.032 5.056 2.544 5.816 2.192 6.696C1.856 7.576 1.688 8.544 1.688 9.6C1.688 10.688 1.864 11.68 2.216 12.576C2.568 13.456 3.056 14.216 3.68 14.856C4.32 15.496 5.056 15.984 5.888 16.32C6.72 16.656 7.616 16.824 8.576 16.824C9.36 16.824 10.096 16.712 10.784 16.488C11.488 16.264 12.144 15.96 12.752 15.576C12.912 15.48 13.08 15.448 13.256 15.48C13.448 15.496 13.6 15.584 13.712 15.744C13.856 15.92 13.904 16.112 13.856 16.32C13.824 16.512 13.72 16.664 13.544 16.776C13.144 17.032 12.672 17.272 12.128 17.496C11.584 17.72 11.008 17.896 10.4 18.024C9.792 18.168 9.184 18.24 8.576 18.24C7.424 18.24 6.344 18.032 5.336 17.616C4.328 17.2 3.432 16.616 2.648 15.864C1.864 15.096 1.248 14.184 0.8 13.128C0.368 12.072 0.152 10.896 0.152 9.6C0.152 8.352 0.368 7.208 0.8 6.168C1.232 5.112 1.832 4.2 2.6 3.432C3.368 2.664 4.264 2.064 5.288 1.632C6.312 1.2 7.408 0.983999 8.576 0.983999C9.488 0.983999 10.368 1.112 11.216 1.368C12.064 1.624 12.832 1.984 13.52 2.448ZM59.7517 9.6C59.7517 10.864 59.5517 12.024 59.1517 13.08C58.7677 14.12 58.2157 15.032 57.4957 15.816C56.7757 16.584 55.9197 17.184 54.9277 17.616C53.9517 18.032 52.8797 18.24 51.7117 18.24C50.5437 18.24 49.4637 18.032 48.4717 17.616C47.4957 17.184 46.6477 16.584 45.9277 15.816C45.2077 15.032 44.6477 14.12 44.2477 13.08C43.8637 12.024 43.6717 10.864 43.6717 9.6C43.6717 8.336 43.8637 7.184 44.2477 6.144C44.6477 5.088 45.2077 4.176 45.9277 3.408C46.6477 2.624 47.4957 2.024 48.4717 1.608C49.4637 1.176 50.5437 0.959999 51.7117 0.959999C52.8797 0.959999 53.9517 1.176 54.9277 1.608C55.9197 2.024 56.7757 2.624 57.4957 3.408C58.2157 4.176 58.7677 5.088 59.1517 6.144C59.5517 7.184 59.7517 8.336 59.7517 9.6ZM58.2157 9.6C58.2157 8.176 57.9357 6.928 57.3757 5.856C56.8317 4.768 56.0717 3.92 55.0957 3.312C54.1197 2.704 52.9917 2.4 51.7117 2.4C50.4477 2.4 49.3197 2.704 48.3277 3.312C47.3517 3.92 46.5837 4.768 46.0237 5.856C45.4797 6.928 45.2077 8.176 45.2077 9.6C45.2077 11.024 45.4797 12.28 46.0237 13.368C46.5837 14.44 47.3517 15.28 48.3277 15.888C49.3197 16.496 50.4477 16.8 51.7117 16.8C52.9917 16.8 54.1197 16.496 55.0957 15.888C56.0717 15.28 56.8317 14.44 57.3757 13.368C57.9357 12.28 58.2157 11.024 58.2157 9.6ZM91.7107 1.2C91.8227 1.2 91.9347 1.224 92.0467 1.272C92.1747 1.32 92.2787 1.4 92.3587 1.512L98.9827 11.448L98.3347 11.424L104.983 1.512C105.159 1.272 105.375 1.168 105.631 1.2C105.823 1.2 105.983 1.272 106.111 1.416C106.255 1.544 106.327 1.712 106.327 1.92V17.28C106.327 17.472 106.255 17.64 106.111 17.784C105.967 17.928 105.791 18 105.583 18C105.359 18 105.175 17.928 105.031 17.784C104.887 17.64 104.815 17.472 104.815 17.28V3.384L105.247 3.432L99.1747 12.624C99.1267 12.72 99.0547 12.8 98.9587 12.864C98.8627 12.912 98.7507 12.928 98.6227 12.912C98.5107 12.928 98.3987 12.912 98.2867 12.864C98.1907 12.8 98.1107 12.72 98.0467 12.624L91.9507 3.336L92.4067 3.024V17.28C92.4067 17.472 92.3347 17.64 92.1907 17.784C92.0627 17.928 91.8947 18 91.6867 18C91.4787 18 91.3107 17.928 91.1827 17.784C91.0547 17.64 90.9907 17.472 90.9907 17.28V1.92C90.9907 1.728 91.0547 1.56 91.1827 1.416C91.3267 1.272 91.5027 1.2 91.7107 1.2ZM140.194 17.256C140.178 17.464 140.09 17.64 139.93 17.784C139.786 17.928 139.618 18 139.426 18C139.202 18 139.018 17.928 138.874 17.784C138.746 17.64 138.682 17.464 138.682 17.256V1.944C138.682 1.736 138.754 1.56 138.898 1.416C139.042 1.272 139.226 1.2 139.45 1.2C139.642 1.2 139.81 1.272 139.954 1.416C140.114 1.56 140.194 1.736 140.194 1.944V17.256ZM184.81 1.2C185.018 1.2 185.178 1.264 185.29 1.392C185.418 1.52 185.482 1.68 185.482 1.872V17.232C185.482 17.472 185.402 17.664 185.242 17.808C185.098 17.936 184.93 18 184.738 18C184.642 18 184.538 17.984 184.426 17.952C184.314 17.904 184.226 17.84 184.162 17.76L173.458 3.336L173.866 3.12V17.352C173.866 17.528 173.802 17.68 173.674 17.808C173.546 17.936 173.386 18 173.194 18C172.986 18 172.818 17.936 172.69 17.808C172.578 17.68 172.522 17.528 172.522 17.352V1.92C172.522 1.68 172.594 1.504 172.738 1.392C172.882 1.264 173.042 1.2 173.218 1.2C173.314 1.2 173.418 1.224 173.53 1.272C173.642 1.304 173.73 1.368 173.794 1.464L184.378 15.72L184.138 16.152V1.872C184.138 1.68 184.202 1.52 184.33 1.392C184.474 1.264 184.634 1.2 184.81 1.2ZM225.359 18.24C224.127 18.24 222.983 18.024 221.927 17.592C220.871 17.16 219.951 16.56 219.167 15.792C218.399 15.008 217.799 14.088 217.367 13.032C216.935 11.976 216.719 10.832 216.719 9.6C216.719 8.368 216.935 7.224 217.367 6.168C217.799 5.112 218.399 4.2 219.167 3.432C219.951 2.648 220.871 2.04 221.927 1.608C222.983 1.176 224.127 0.959999 225.359 0.959999C226.207 0.959999 227.023 1.064 227.807 1.272C228.607 1.464 229.319 1.76 229.943 2.16C230.055 2.24 230.135 2.336 230.183 2.448C230.247 2.544 230.279 2.648 230.279 2.76C230.279 2.984 230.207 3.168 230.063 3.312C229.919 3.44 229.767 3.504 229.607 3.504C229.527 3.504 229.447 3.496 229.367 3.48C229.303 3.448 229.239 3.416 229.175 3.384C228.631 3.08 228.039 2.84 227.399 2.664C226.759 2.488 226.079 2.4 225.359 2.4C223.983 2.4 222.759 2.712 221.687 3.336C220.615 3.96 219.775 4.816 219.167 5.904C218.559 6.992 218.255 8.224 218.255 9.6C218.255 10.976 218.559 12.208 219.167 13.296C219.775 14.384 220.615 15.24 221.687 15.864C222.759 16.488 223.983 16.8 225.359 16.8C226.079 16.8 226.799 16.696 227.519 16.488C228.255 16.28 228.887 16 229.415 15.648L229.295 16.152V10.632L229.655 10.968H225.503C225.295 10.968 225.119 10.896 224.975 10.752C224.831 10.608 224.759 10.44 224.759 10.248C224.759 10.024 224.831 9.848 224.975 9.72C225.119 9.592 225.295 9.528 225.503 9.528H230.087C230.295 9.528 230.463 9.6 230.591 9.744C230.735 9.872 230.807 10.04 230.807 10.248V16.032C230.807 16.16 230.775 16.28 230.711 16.392C230.647 16.504 230.559 16.6 230.447 16.68C229.743 17.16 228.951 17.544 228.071 17.832C227.207 18.104 226.303 18.24 225.359 18.24ZM301.385 18.24C300.169 18.256 299.113 18.064 298.217 17.664C297.321 17.264 296.465 16.664 295.649 15.864C295.569 15.8 295.497 15.72 295.433 15.624C295.385 15.528 295.361 15.416 295.361 15.288C295.361 15.096 295.433 14.92 295.577 14.76C295.737 14.6 295.913 14.52 296.105 14.52C296.297 14.52 296.473 14.6 296.633 14.76C297.257 15.432 297.961 15.944 298.745 16.296C299.545 16.648 300.401 16.824 301.313 16.824C302.081 16.824 302.761 16.704 303.353 16.464C303.961 16.224 304.441 15.88 304.793 15.432C305.145 14.984 305.321 14.464 305.321 13.872C305.321 13.136 305.121 12.544 304.721 12.096C304.321 11.632 303.793 11.256 303.137 10.968C302.481 10.664 301.753 10.392 300.953 10.152C300.297 9.96 299.673 9.744 299.081 9.504C298.489 9.248 297.961 8.944 297.497 8.592C297.033 8.224 296.673 7.776 296.417 7.248C296.161 6.72 296.033 6.08 296.033 5.328C296.033 4.48 296.257 3.728 296.705 3.072C297.153 2.416 297.785 1.904 298.601 1.536C299.433 1.152 300.393 0.959999 301.481 0.959999C302.425 0.959999 303.329 1.12 304.193 1.44C305.073 1.76 305.769 2.232 306.281 2.856C306.521 3.112 306.641 3.344 306.641 3.552C306.641 3.712 306.561 3.872 306.401 4.032C306.241 4.192 306.065 4.272 305.873 4.272C305.713 4.272 305.577 4.216 305.465 4.104C305.193 3.768 304.849 3.472 304.433 3.216C304.017 2.944 303.553 2.736 303.041 2.592C302.545 2.448 302.025 2.376 301.481 2.376C300.729 2.376 300.049 2.496 299.441 2.736C298.849 2.96 298.377 3.288 298.025 3.72C297.689 4.152 297.521 4.672 297.521 5.28C297.521 5.952 297.713 6.504 298.097 6.936C298.481 7.368 298.985 7.728 299.609 8.016C300.233 8.288 300.897 8.544 301.601 8.784C302.289 8.976 302.945 9.2 303.569 9.456C304.209 9.696 304.769 10 305.249 10.368C305.745 10.736 306.129 11.2 306.401 11.76C306.689 12.32 306.833 13.024 306.833 13.872C306.833 14.688 306.601 15.424 306.137 16.08C305.673 16.736 305.033 17.256 304.217 17.64C303.417 18.024 302.473 18.224 301.385 18.24ZM353.046 9.6C353.046 10.864 352.846 12.024 352.446 13.08C352.062 14.12 351.51 15.032 350.79 15.816C350.07 16.584 349.214 17.184 348.222 17.616C347.246 18.032 346.174 18.24 345.006 18.24C343.838 18.24 342.758 18.032 341.766 17.616C340.79 17.184 339.942 16.584 339.222 15.816C338.502 15.032 337.942 14.12 337.542 13.08C337.158 12.024 336.966 10.864 336.966 9.6C336.966 8.336 337.158 7.184 337.542 6.144C337.942 5.088 338.502 4.176 339.222 3.408C339.942 2.624 340.79 2.024 341.766 1.608C342.758 1.176 343.838 0.959999 345.006 0.959999C346.174 0.959999 347.246 1.176 348.222 1.608C349.214 2.024 350.07 2.624 350.79 3.408C351.51 4.176 352.062 5.088 352.446 6.144C352.846 7.184 353.046 8.336 353.046 9.6ZM351.51 9.6C351.51 8.176 351.23 6.928 350.67 5.856C350.126 4.768 349.366 3.92 348.39 3.312C347.414 2.704 346.286 2.4 345.006 2.4C343.742 2.4 342.614 2.704 341.622 3.312C340.646 3.92 339.878 4.768 339.318 5.856C338.774 6.928 338.502 8.176 338.502 9.6C338.502 11.024 338.774 12.28 339.318 13.368C339.878 14.44 340.646 15.28 341.622 15.888C342.614 16.496 343.742 16.8 345.006 16.8C346.286 16.8 347.414 16.496 348.39 15.888C349.366 15.28 350.126 14.44 350.67 13.368C351.23 12.28 351.51 11.024 351.51 9.6ZM399.261 9.6C399.261 10.864 399.061 12.024 398.661 13.08C398.277 14.12 397.725 15.032 397.005 15.816C396.285 16.584 395.429 17.184 394.437 17.616C393.461 18.032 392.389 18.24 391.221 18.24C390.053 18.24 388.973 18.032 387.981 17.616C387.005 17.184 386.157 16.584 385.437 15.816C384.717 15.032 384.157 14.12 383.757 13.08C383.373 12.024 383.181 10.864 383.181 9.6C383.181 8.336 383.373 7.184 383.757 6.144C384.157 5.088 384.717 4.176 385.437 3.408C386.157 2.624 387.005 2.024 387.981 1.608C388.973 1.176 390.053 0.959999 391.221 0.959999C392.389 0.959999 393.461 1.176 394.437 1.608C395.429 2.024 396.285 2.624 397.005 3.408C397.725 4.176 398.277 5.088 398.661 6.144C399.061 7.184 399.261 8.336 399.261 9.6ZM397.725 9.6C397.725 8.176 397.445 6.928 396.885 5.856C396.341 4.768 395.581 3.92 394.605 3.312C393.629 2.704 392.501 2.4 391.221 2.4C389.957 2.4 388.829 2.704 387.837 3.312C386.861 3.92 386.093 4.768 385.533 5.856C384.989 6.928 384.717 8.176 384.717 9.6C384.717 11.024 384.989 12.28 385.533 13.368C386.093 14.44 386.861 15.28 387.837 15.888C388.829 16.496 389.957 16.8 391.221 16.8C392.501 16.8 393.629 16.496 394.605 15.888C395.581 15.28 396.341 14.44 396.885 13.368C397.445 12.28 397.725 11.024 397.725 9.6ZM442.788 1.2C442.996 1.2 443.156 1.264 443.268 1.392C443.396 1.52 443.46 1.68 443.46 1.872V17.232C443.46 17.472 443.38 17.664 443.22 17.808C443.076 17.936 442.908 18 442.716 18C442.62 18 442.516 17.984 442.404 17.952C442.292 17.904 442.204 17.84 442.14 17.76L431.436 3.336L431.844 3.12V17.352C431.844 17.528 431.78 17.68 431.652 17.808C431.524 17.936 431.364 18 431.172 18C430.964 18 430.796 17.936 430.668 17.808C430.556 17.68 430.5 17.528 430.5 17.352V1.92C430.5 1.68 430.572 1.504 430.716 1.392C430.86 1.264 431.02 1.2 431.196 1.2C431.292 1.2 431.396 1.224 431.508 1.272C431.62 1.304 431.708 1.368 431.772 1.464L442.356 15.72L442.116 16.152V1.872C442.116 1.68 442.18 1.52 442.308 1.392C442.452 1.264 442.612 1.2 442.788 1.2Z" fill="black"/>
</svg>
