<svg width="381" height="57" viewBox="0 0 381 57" fill="none" xmlns="http://www.w3.org/2000/svg">
<path d="M70.58 54V46.8H76.58C76.8 46.8 77 46.8533 77.18 46.96C77.3667 47.0667 77.5133 47.2133 77.62 47.4C77.7267 47.58 77.78 47.78 77.78 48V52.8C77.78 53.02 77.7267 53.2233 77.62 53.41C77.5133 53.59 77.3667 53.7333 77.18 53.84C77 53.9467 76.8 54 76.58 54H70.58ZM71.78 53.19H76.58C76.6867 53.19 76.7767 53.1533 76.85 53.08C76.93 53 76.97 52.9067 76.97 52.8V48C76.97 47.8933 76.93 47.8033 76.85 47.73C76.7767 47.65 76.6867 47.61 76.58 47.61H71.78C71.6733 47.61 71.58 47.65 71.5 47.73C71.4267 47.8033 71.39 47.8933 71.39 48V52.8C71.39 52.9067 71.4267 53 71.5 53.08C71.58 53.1533 71.6733 53.19 71.78 53.19ZM80.7198 54V46.8H87.2898V47.61H81.5298V49.99H86.1598V50.81H81.5298V53.19H87.2898V54H80.7198ZM91.3061 54C91.0861 54 90.8828 53.9467 90.6961 53.84C90.5161 53.7333 90.3728 53.59 90.2661 53.41C90.1594 53.2233 90.1061 53.02 90.1061 52.8V52.52H90.9161V52.8C90.9161 52.9067 90.9528 53 91.0261 53.08C91.1061 53.1533 91.1994 53.19 91.3061 53.19H96.1061C96.2128 53.19 96.3028 53.1533 96.3761 53.08C96.4561 53 96.4961 52.9067 96.4961 52.8V51.19C96.4961 51.0833 96.4561 50.9933 96.3761 50.92C96.3028 50.8467 96.2128 50.81 96.1061 50.81H91.3061C91.0861 50.81 90.8828 50.7567 90.6961 50.65C90.5161 50.5367 90.3728 50.39 90.2661 50.21C90.1594 50.03 90.1061 49.83 90.1061 49.61V48C90.1061 47.78 90.1594 47.58 90.2661 47.4C90.3728 47.2133 90.5161 47.0667 90.6961 46.96C90.8828 46.8533 91.0861 46.8 91.3061 46.8H96.1061C96.3261 46.8 96.5261 46.8533 96.7061 46.96C96.8928 47.0667 97.0394 47.2133 97.1461 47.4C97.2528 47.58 97.3061 47.78 97.3061 48V48.28H96.4961V48C96.4961 47.8933 96.4561 47.8033 96.3761 47.73C96.3028 47.65 96.2128 47.61 96.1061 47.61H91.3061C91.1994 47.61 91.1061 47.65 91.0261 47.73C90.9528 47.8033 90.9161 47.8933 90.9161 48V49.61C90.9161 49.7167 90.9528 49.8067 91.0261 49.88C91.1061 49.9533 91.1994 49.99 91.3061 49.99H96.1061C96.3261 49.99 96.5261 50.0467 96.7061 50.16C96.8928 50.2667 97.0394 50.41 97.1461 50.59C97.2528 50.77 97.3061 50.97 97.3061 51.19V52.8C97.3061 53.02 97.2528 53.2233 97.1461 53.41C97.0394 53.59 96.8928 53.7333 96.7061 53.84C96.5261 53.9467 96.3261 54 96.1061 54H91.3061ZM100.279 54V46.8H101.099V54H100.279ZM105.317 54C105.097 54 104.894 53.9467 104.707 53.84C104.527 53.7333 104.384 53.59 104.277 53.41C104.171 53.2233 104.117 53.02 104.117 52.8V48C104.117 47.78 104.171 47.58 104.277 47.4C104.384 47.2133 104.527 47.0667 104.707 46.96C104.894 46.8533 105.097 46.8 105.317 46.8H110.117C110.337 46.8 110.537 46.8533 110.717 46.96C110.904 47.0667 111.051 47.2133 111.157 47.4C111.264 47.58 111.317 47.78 111.317 48V48.29H110.507V48C110.507 47.8933 110.467 47.8033 110.387 47.73C110.314 47.65 110.224 47.61 110.117 47.61H105.317C105.211 47.61 105.117 47.65 105.037 47.73C104.964 47.8033 104.927 47.8933 104.927 48V52.8C104.927 52.9067 104.964 53 105.037 53.08C105.117 53.1533 105.211 53.19 105.317 53.19H110.117C110.224 53.19 110.314 53.1533 110.387 53.08C110.467 53 110.507 52.9067 110.507 52.8V51.02H108.727V50.2H111.317V52.8C111.317 53.02 111.264 53.2233 111.157 53.41C111.051 53.59 110.904 53.7333 110.717 53.84C110.537 53.9467 110.337 54 110.117 54H105.317ZM114.218 54V46.8H115.328L120.608 53.08V46.8H121.418V54H120.308L115.028 47.72V54H114.218ZM130.013 54C129.793 54 129.59 53.9467 129.403 53.84C129.223 53.7333 129.08 53.59 128.973 53.41C128.866 53.2233 128.813 53.02 128.813 52.8V52.52H129.623V52.8C129.623 52.9067 129.66 53 129.733 53.08C129.813 53.1533 129.906 53.19 130.013 53.19H134.813C134.92 53.19 135.01 53.1533 135.083 53.08C135.163 53 135.203 52.9067 135.203 52.8V51.19C135.203 51.0833 135.163 50.9933 135.083 50.92C135.01 50.8467 134.92 50.81 134.813 50.81H130.013C129.793 50.81 129.59 50.7567 129.403 50.65C129.223 50.5367 129.08 50.39 128.973 50.21C128.866 50.03 128.813 49.83 128.813 49.61V48C128.813 47.78 128.866 47.58 128.973 47.4C129.08 47.2133 129.223 47.0667 129.403 46.96C129.59 46.8533 129.793 46.8 130.013 46.8H134.813C135.033 46.8 135.233 46.8533 135.413 46.96C135.6 47.0667 135.746 47.2133 135.853 47.4C135.96 47.58 136.013 47.78 136.013 48V48.28H135.203V48C135.203 47.8933 135.163 47.8033 135.083 47.73C135.01 47.65 134.92 47.61 134.813 47.61H130.013C129.906 47.61 129.813 47.65 129.733 47.73C129.66 47.8033 129.623 47.8933 129.623 48V49.61C129.623 49.7167 129.66 49.8067 129.733 49.88C129.813 49.9533 129.906 49.99 130.013 49.99H134.813C135.033 49.99 135.233 50.0467 135.413 50.16C135.6 50.2667 135.746 50.41 135.853 50.59C135.96 50.77 136.013 50.97 136.013 51.19V52.8C136.013 53.02 135.96 53.2233 135.853 53.41C135.746 53.59 135.6 53.7333 135.413 53.84C135.233 53.9467 135.033 54 134.813 54H130.013ZM140.066 54C139.846 54 139.642 53.9467 139.456 53.84C139.276 53.7333 139.132 53.59 139.026 53.41C138.919 53.2233 138.866 53.02 138.866 52.8V48C138.866 47.78 138.919 47.58 139.026 47.4C139.132 47.2133 139.276 47.0667 139.456 46.96C139.642 46.8533 139.846 46.8 140.066 46.8H144.866C145.086 46.8 145.286 46.8533 145.466 46.96C145.652 47.0667 145.799 47.2133 145.906 47.4C146.012 47.58 146.066 47.78 146.066 48V52.8C146.066 53.02 146.012 53.2233 145.906 53.41C145.799 53.59 145.652 53.7333 145.466 53.84C145.286 53.9467 145.086 54 144.866 54H140.066ZM140.066 53.19H144.866C144.972 53.19 145.062 53.1533 145.136 53.08C145.216 53 145.256 52.9067 145.256 52.8V48C145.256 47.8933 145.216 47.8033 145.136 47.73C145.062 47.65 144.972 47.61 144.866 47.61H140.066C139.959 47.61 139.866 47.65 139.786 47.73C139.712 47.8033 139.676 47.8933 139.676 48V52.8C139.676 52.9067 139.712 53 139.786 53.08C139.866 53.1533 139.959 53.19 140.066 53.19ZM148.977 54V46.79H149.787V53.19H156.177V54H148.977ZM159.74 54C159.52 54 159.317 53.9467 159.13 53.84C158.95 53.7333 158.807 53.59 158.7 53.41C158.593 53.2233 158.54 53.02 158.54 52.8V46.8H159.35V52.8C159.35 52.9067 159.387 53 159.46 53.08C159.54 53.1533 159.633 53.19 159.74 53.19H164.54C164.647 53.19 164.737 53.1533 164.81 53.08C164.89 53 164.93 52.9067 164.93 52.8V46.8H165.74V52.8C165.74 53.02 165.687 53.2233 165.58 53.41C165.473 53.59 165.327 53.7333 165.14 53.84C164.96 53.9467 164.76 54 164.54 54H159.74ZM171.481 54V47.61H168.281V46.8H175.481V47.61H172.291V54H171.481ZM178.129 54V46.8H178.949V54H178.129ZM183.148 54C182.928 54 182.724 53.9467 182.538 53.84C182.358 53.7333 182.214 53.59 182.108 53.41C182.001 53.2233 181.948 53.02 181.948 52.8V48C181.948 47.78 182.001 47.58 182.108 47.4C182.214 47.2133 182.358 47.0667 182.538 46.96C182.724 46.8533 182.928 46.8 183.148 46.8H187.948C188.168 46.8 188.368 46.8533 188.548 46.96C188.734 47.0667 188.881 47.2133 188.988 47.4C189.094 47.58 189.148 47.78 189.148 48V52.8C189.148 53.02 189.094 53.2233 188.988 53.41C188.881 53.59 188.734 53.7333 188.548 53.84C188.368 53.9467 188.168 54 187.948 54H183.148ZM183.148 53.19H187.948C188.054 53.19 188.144 53.1533 188.218 53.08C188.298 53 188.338 52.9067 188.338 52.8V48C188.338 47.8933 188.298 47.8033 188.218 47.73C188.144 47.65 188.054 47.61 187.948 47.61H183.148C183.041 47.61 182.948 47.65 182.868 47.73C182.794 47.8033 182.758 47.8933 182.758 48V52.8C182.758 52.9067 182.794 53 182.868 53.08C182.948 53.1533 183.041 53.19 183.148 53.19ZM192.049 54V46.8H193.159L198.439 53.08V46.8H199.249V54H198.139L192.859 47.72V54H192.049ZM203.319 54C203.099 54 202.896 53.9467 202.709 53.84C202.529 53.7333 202.386 53.59 202.279 53.41C202.173 53.2233 202.119 53.02 202.119 52.8V52.52H202.929V52.8C202.929 52.9067 202.966 53 203.039 53.08C203.119 53.1533 203.213 53.19 203.319 53.19H208.119C208.226 53.19 208.316 53.1533 208.389 53.08C208.469 53 208.509 52.9067 208.509 52.8V51.19C208.509 51.0833 208.469 50.9933 208.389 50.92C208.316 50.8467 208.226 50.81 208.119 50.81H203.319C203.099 50.81 202.896 50.7567 202.709 50.65C202.529 50.5367 202.386 50.39 202.279 50.21C202.173 50.03 202.119 49.83 202.119 49.61V48C202.119 47.78 202.173 47.58 202.279 47.4C202.386 47.2133 202.529 47.0667 202.709 46.96C202.896 46.8533 203.099 46.8 203.319 46.8H208.119C208.339 46.8 208.539 46.8533 208.719 46.96C208.906 47.0667 209.053 47.2133 209.159 47.4C209.266 47.58 209.319 47.78 209.319 48V48.28H208.509V48C208.509 47.8933 208.469 47.8033 208.389 47.73C208.316 47.65 208.226 47.61 208.119 47.61H203.319C203.213 47.61 203.119 47.65 203.039 47.73C202.966 47.8033 202.929 47.8933 202.929 48V49.61C202.929 49.7167 202.966 49.8067 203.039 49.88C203.119 49.9533 203.213 49.99 203.319 49.99H208.119C208.339 49.99 208.539 50.0467 208.719 50.16C208.906 50.2667 209.053 50.41 209.159 50.59C209.266 50.77 209.319 50.97 209.319 51.19V52.8C209.319 53.02 209.266 53.2233 209.159 53.41C209.053 53.59 208.906 53.7333 208.719 53.84C208.539 53.9467 208.339 54 208.119 54H203.319Z" fill="black"/>
<path d="M70.56 10V2.81H76.56C76.78 2.81 76.98 2.86667 77.16 2.98C77.3467 3.08667 77.4933 3.23 77.6 3.41C77.7067 3.59 77.76 3.79 77.76 4.01V6.12C77.76 6.34 77.7067 6.54 77.6 6.72C77.4933 6.9 77.3467 7.04667 77.16 7.16C76.98 7.26667 76.78 7.32 76.56 7.32H71.37V10H70.56ZM71.76 6.5H76.56C76.6667 6.5 76.7567 6.46333 76.83 6.39C76.91 6.31667 76.95 6.22667 76.95 6.12V4.01C76.95 3.90333 76.91 3.81333 76.83 3.74C76.7567 3.66 76.6667 3.62 76.56 3.62H71.76C71.6533 3.62 71.56 3.66 71.48 3.74C71.4067 3.81333 71.37 3.90333 71.37 4.01V6.12C71.37 6.22667 71.4067 6.31667 71.48 6.39C71.56 6.46333 71.6533 6.5 71.76 6.5ZM81.4502 10C81.2302 10 81.0268 9.94667 80.8402 9.84C80.6602 9.73333 80.5168 9.59 80.4102 9.41C80.3035 9.22333 80.2502 9.02 80.2502 8.8V4C80.2502 3.78 80.3035 3.58 80.4102 3.4C80.5168 3.21333 80.6602 3.06667 80.8402 2.96C81.0268 2.85333 81.2302 2.8 81.4502 2.8H86.2502C86.4702 2.8 86.6702 2.85333 86.8502 2.96C87.0368 3.06667 87.1835 3.21333 87.2902 3.4C87.3968 3.58 87.4502 3.78 87.4502 4V8.8C87.4502 9.02 87.3968 9.22333 87.2902 9.41C87.1835 9.59 87.0368 9.73333 86.8502 9.84C86.6702 9.94667 86.4702 10 86.2502 10H81.4502ZM81.4502 9.19H86.2502C86.3568 9.19 86.4468 9.15333 86.5202 9.08C86.6002 9 86.6402 8.90667 86.6402 8.8V4C86.6402 3.89333 86.6002 3.80333 86.5202 3.73C86.4468 3.65 86.3568 3.61 86.2502 3.61H81.4502C81.3435 3.61 81.2502 3.65 81.1702 3.73C81.0968 3.80333 81.0602 3.89333 81.0602 4V8.8C81.0602 8.90667 81.0968 9 81.1702 9.08C81.2502 9.15333 81.3435 9.19 81.4502 9.19ZM92.488 10L89.868 2.8H90.728L92.838 8.58L94.938 2.8H95.918L98.028 8.58L100.118 2.8H100.998L98.378 10H97.668L95.428 3.85L93.188 10H92.488ZM103.685 10V2.8H110.255V3.61H104.495V5.99H109.125V6.81H104.495V9.19H110.255V10H103.685ZM119.201 10L116.851 7.2H117.911L120.271 9.99V10H119.201ZM113.121 10V2.81H119.121C119.341 2.81 119.541 2.86667 119.721 2.98C119.908 3.08667 120.055 3.23 120.161 3.41C120.268 3.59 120.321 3.79 120.321 4.01V6.12C120.321 6.34 120.268 6.54 120.161 6.72C120.055 6.9 119.908 7.04667 119.721 7.16C119.541 7.26667 119.341 7.32 119.121 7.32H113.931V10H113.121ZM114.321 6.5H119.121C119.228 6.5 119.318 6.46333 119.391 6.39C119.471 6.31667 119.511 6.22667 119.511 6.12V4.01C119.511 3.90333 119.471 3.81333 119.391 3.74C119.318 3.66 119.228 3.62 119.121 3.62H114.321C114.215 3.62 114.121 3.66 114.041 3.74C113.968 3.81333 113.931 3.90333 113.931 4.01V6.12C113.931 6.22667 113.968 6.31667 114.041 6.39C114.121 6.46333 114.215 6.5 114.321 6.5ZM123.193 10V2.8H129.763V3.61H124.003V5.99H128.633V6.81H124.003V9.19H129.763V10H123.193ZM132.65 10V2.8H138.65C138.87 2.8 139.07 2.85333 139.25 2.96C139.436 3.06667 139.583 3.21333 139.69 3.4C139.796 3.58 139.85 3.78 139.85 4V8.8C139.85 9.02 139.796 9.22333 139.69 9.41C139.583 9.59 139.436 9.73333 139.25 9.84C139.07 9.94667 138.87 10 138.65 10H132.65ZM133.85 9.19H138.65C138.756 9.19 138.846 9.15333 138.92 9.08C139 9 139.04 8.90667 139.04 8.8V4C139.04 3.89333 139 3.80333 138.92 3.73C138.846 3.65 138.756 3.61 138.65 3.61H133.85C133.743 3.61 133.65 3.65 133.57 3.73C133.496 3.80333 133.46 3.89333 133.46 4V8.8C133.46 8.90667 133.496 9 133.57 9.08C133.65 9.15333 133.743 9.19 133.85 9.19ZM147.324 10V2.8H153.014C153.234 2.8 153.434 2.85333 153.614 2.96C153.801 3.06667 153.947 3.21333 154.054 3.4C154.161 3.58 154.214 3.78 154.214 4V5.53C154.214 5.62333 154.201 5.71667 154.174 5.81C154.154 5.89667 154.124 5.98 154.084 6.06C154.231 6.28 154.341 6.47 154.414 6.63C154.487 6.79 154.524 6.95333 154.524 7.12V8.8C154.524 9.02 154.471 9.22333 154.364 9.41C154.257 9.59 154.111 9.73333 153.924 9.84C153.744 9.94667 153.544 10 153.324 10H147.324ZM148.524 9.19H153.324C153.431 9.19 153.521 9.15333 153.594 9.08C153.674 9 153.714 8.90667 153.714 8.8V7.12C153.714 7.01333 153.674 6.92333 153.594 6.85C153.521 6.77 153.431 6.73 153.324 6.73H148.524C148.417 6.73 148.324 6.77 148.244 6.85C148.171 6.92333 148.134 7.01333 148.134 7.12V8.8C148.134 8.90667 148.171 9 148.244 9.08C148.324 9.15333 148.417 9.19 148.524 9.19ZM148.524 5.92H153.014C153.121 5.92 153.211 5.88333 153.284 5.81C153.357 5.73 153.394 5.63667 153.394 5.53V4C153.394 3.89333 153.357 3.80333 153.284 3.73C153.211 3.65 153.121 3.61 153.014 3.61H148.524C148.417 3.61 148.324 3.65 148.244 3.73C148.171 3.80333 148.134 3.89333 148.134 4V5.53C148.134 5.63667 148.171 5.73 148.244 5.81C148.324 5.88333 148.417 5.92 148.524 5.92ZM160.172 10V7.29L156.862 2.8H157.792L160.582 6.32L163.342 2.8H164.292L160.982 7.29V10H160.172Z" fill="black"/>
<path d="M42.9202 39.5312L39.7878 34.375L36.6553 39.5312H42.9202Z" fill="black"/>
<path fill-rule="evenodd" clip-rule="evenodd" d="M0 0H57.8731V55H0V0ZM39.682 28.2304L47.8526 41.6797H31.5114L39.682 28.2304ZM37.2712 24.262L26.6898 41.6797H21.8789L31.0099 26.6495L27.3937 24.6653L17.0573 41.6797H11.8291L29.8408 12.0312L37.2712 24.262Z" fill="black"/>
<path d="M70 17H87.2859V20.2227H73.391V26.668H85.2513V29.8906H73.391V39.5429H70V17Z" fill="black"/>
<path d="M92.0333 17H109.319V20.2227H95.4243V26.668H107.285V29.8906H95.4243V36.3202H109.319V39.5429H92.0333V17Z" fill="black"/>
<path d="M117.788 17V36.3202H129.979V39.5429H114.397V17H117.788Z" fill="black"/>
<path d="M137.44 17V39.5429H134.049V17H137.44Z" fill="black"/>
<path d="M145.777 17L152.112 25.4418L158.48 17H162.583L154.18 28.1771L162.765 39.5429H158.662L152.112 30.881L145.611 39.5429H141.509L150.094 28.1771L141.691 17H145.777Z" fill="black"/>
<path d="M181.738 39.5429L174.956 17H178.347L183.607 34.9368L188.851 17H192.242L197.485 34.9368L202.745 17H206.136L199.354 39.5429H195.633L190.554 22.6436L185.46 39.5429H181.738Z" fill="black"/>
<path d="M230.535 36.3202C230.535 36.7604 230.447 37.1796 230.27 37.5778C230.094 37.9656 229.851 38.3062 229.543 38.5997C229.234 38.8931 228.87 39.1237 228.451 39.2913C228.043 39.459 227.607 39.5429 227.144 39.5429H213.597C213.133 39.5429 212.692 39.459 212.273 39.2913C211.865 39.1237 211.507 38.8931 211.198 38.5997C210.889 38.3062 210.647 37.9656 210.47 37.5778C210.294 37.1796 210.206 36.7604 210.206 36.3202V20.2227C210.206 19.7825 210.294 19.3685 210.47 18.9808C210.647 18.5825 210.889 18.2419 211.198 17.9589C211.507 17.6655 211.865 17.4349 212.273 17.2672C212.692 17.0891 213.133 17 213.597 17H227.144C227.607 17 228.043 17.0891 228.451 17.2672C228.87 17.4349 229.234 17.6655 229.543 17.9589C229.851 18.2419 230.094 18.5825 230.27 18.9808C230.447 19.3685 230.535 19.7825 230.535 20.2227V36.3202ZM213.597 20.2227V36.3202H227.144V20.2227H213.597Z" fill="black"/>
<path d="M255.38 25.0488C255.38 28.1928 253.969 29.9849 251.146 30.4251L255.612 39.5429H251.857L247.457 30.5352H240.03V39.5429H236.639V17H249.624C253.462 17 255.38 18.8288 255.38 22.4864V25.0488ZM240.03 27.3125H249.442C250.346 27.3125 250.997 27.1239 251.394 26.7466C251.791 26.3693 251.989 25.751 251.989 24.8916V22.6436C251.989 21.7842 251.791 21.1659 251.394 20.7886C250.997 20.4113 250.346 20.2227 249.442 20.2227H240.03V27.3125Z" fill="black"/>
<path d="M264.445 17V26.7309L275.76 17H280.54L267.704 28.0514L281.053 39.5429H276.272L264.445 29.4033V39.5429H261.054V17H264.445Z" fill="black"/>
<path d="M287.537 29.8906C287.074 29.8906 286.633 29.8068 286.214 29.6391C285.806 29.4609 285.447 29.2304 285.139 28.9474C284.83 28.654 284.587 28.3134 284.411 27.9256C284.234 27.5273 284.146 27.1081 284.146 26.668V20.2227C284.146 19.7825 284.234 19.3685 284.411 18.9808C284.587 18.5825 284.83 18.2419 285.139 17.9589C285.447 17.6655 285.806 17.4349 286.214 17.2672C286.633 17.0891 287.074 17 287.537 17H299.05C299.513 17 299.949 17.0891 300.357 17.2672C300.776 17.4349 301.14 17.6655 301.448 17.9589C301.757 18.2419 302 18.5825 302.176 18.9808C302.353 19.3685 302.441 19.7825 302.441 20.2227V23.1309H299.05V20.2227H287.537V26.668H299.05C299.513 26.668 299.949 26.7518 300.357 26.9195C300.776 27.0872 301.14 27.3177 301.448 27.6112C301.757 27.9046 302 28.2505 302.176 28.6487C302.353 29.0365 302.441 29.4505 302.441 29.8906V36.3202C302.441 36.7604 302.353 37.1796 302.176 37.5778C302 37.9656 301.757 38.3062 301.448 38.5997C301.14 38.8931 300.776 39.1237 300.357 39.2913C299.949 39.459 299.513 39.5429 299.05 39.5429H287.206C286.743 39.5429 286.302 39.459 285.883 39.2913C285.475 39.1237 285.116 38.8931 284.808 38.5997C284.499 38.3062 284.256 37.9656 284.08 37.5778C283.903 37.1796 283.815 36.7604 283.815 36.3202V33.4277H287.206V36.3202H299.05V29.8906H287.537Z" fill="black"/>
<path d="M328.924 17V39.5429H325.533V29.8906H311.952V39.5429H308.561V17H311.952V26.668H325.533V17H328.924Z" fill="black"/>
<path d="M355.357 36.3202C355.357 36.7604 355.269 37.1796 355.092 37.5778C354.916 37.9656 354.673 38.3062 354.365 38.5997C354.056 38.8931 353.692 39.1237 353.273 39.2913C352.865 39.459 352.429 39.5429 351.966 39.5429H338.419C337.955 39.5429 337.514 39.459 337.095 39.2913C336.687 39.1237 336.329 38.8931 336.02 38.5997C335.711 38.3062 335.469 37.9656 335.292 37.5778C335.116 37.1796 335.028 36.7604 335.028 36.3202V20.2227C335.028 19.7825 335.116 19.3685 335.292 18.9808C335.469 18.5825 335.711 18.2419 336.02 17.9589C336.329 17.6655 336.687 17.4349 337.095 17.2672C337.514 17.0891 337.955 17 338.419 17H351.966C352.429 17 352.865 17.0891 353.273 17.2672C353.692 17.4349 354.056 17.6655 354.365 17.9589C354.673 18.2419 354.916 18.5825 355.092 18.9808C355.269 19.3685 355.357 19.7825 355.357 20.2227V36.3202ZM338.419 20.2227V36.3202H351.966V20.2227H338.419Z" fill="black"/>
<path d="M361.461 39.5429V17H374.446C378.284 17 380.202 18.8288 380.202 22.4864V25.6933C380.202 29.3509 378.284 31.1797 374.446 31.1797H364.852V39.5429H361.461ZM364.852 27.957H374.264C375.168 27.957 375.819 27.7684 376.216 27.3911C376.613 27.0138 376.811 26.3955 376.811 25.5361V22.6436C376.811 21.7842 376.613 21.1659 376.216 20.7886C375.819 20.4113 375.168 20.2227 374.264 20.2227H364.852V27.957Z" fill="black"/>
</svg>
