<svg width="984" height="141" viewBox="0 0 984 141" fill="none" xmlns="http://www.w3.org/2000/svg">
<path d="M916.826 139.712C916.561 139.712 916.357 139.62 916.214 139.437C916.071 139.253 916 139.029 916 138.764V138.062C916 137.776 916.071 137.552 916.214 137.389C916.357 137.206 916.561 137.114 916.826 137.114H916.949C917.234 137.114 917.438 137.206 917.561 137.389C917.704 137.552 917.775 137.776 917.775 138.062V138.764C917.775 139.029 917.704 139.253 917.561 139.437C917.438 139.62 917.234 139.712 916.949 139.712H916.826Z" fill="black"/>
<path d="M922.953 118.323C923.055 118.323 923.158 118.343 923.26 118.384C923.362 118.425 923.453 118.496 923.535 118.598L932.319 131.645H931.706L940.49 118.598C940.653 118.374 940.847 118.282 941.071 118.323C941.235 118.343 941.367 118.414 941.469 118.537C941.571 118.639 941.622 118.771 941.622 118.934V139.101C941.622 139.264 941.551 139.406 941.408 139.528C941.286 139.651 941.143 139.712 940.98 139.712C940.796 139.712 940.643 139.651 940.521 139.528C940.398 139.406 940.337 139.264 940.337 139.101V120.309H940.674L932.441 132.745C932.4 132.826 932.339 132.888 932.257 132.928C932.196 132.969 932.114 132.989 932.012 132.989C931.91 132.989 931.808 132.969 931.706 132.928C931.625 132.888 931.564 132.826 931.523 132.745L923.107 120.064H923.596V139.101C923.596 139.264 923.535 139.406 923.413 139.528C923.29 139.651 923.147 139.712 922.984 139.712C922.8 139.712 922.647 139.651 922.525 139.528C922.423 139.406 922.372 139.264 922.372 139.101V118.934C922.372 118.791 922.423 118.659 922.525 118.537C922.627 118.394 922.77 118.323 922.953 118.323Z" fill="black"/>
<path d="M966.66 129.017C966.66 130.647 966.405 132.134 965.895 133.478C965.405 134.823 964.701 135.984 963.783 136.962C962.865 137.939 961.784 138.693 960.539 139.223C959.295 139.752 957.928 140.017 956.438 140.017C954.949 140.017 953.582 139.752 952.337 139.223C951.092 138.693 950.011 137.939 949.093 136.962C948.175 135.984 947.461 134.823 946.951 133.478C946.461 132.134 946.216 130.647 946.216 129.017C946.216 127.388 946.461 125.901 946.951 124.556C947.461 123.212 948.175 122.051 949.093 121.073C950.011 120.095 951.092 119.341 952.337 118.812C953.582 118.282 954.949 118.017 956.438 118.017C957.928 118.017 959.295 118.282 960.539 118.812C961.784 119.341 962.865 120.095 963.783 121.073C964.701 122.051 965.405 123.212 965.895 124.556C966.405 125.901 966.66 127.388 966.66 129.017ZM965.375 129.017C965.375 127.062 964.987 125.351 964.212 123.884C963.457 122.417 962.406 121.276 961.059 120.462C959.733 119.647 958.193 119.239 956.438 119.239C954.704 119.239 953.163 119.647 951.817 120.462C950.47 121.276 949.409 122.417 948.634 123.884C947.879 125.351 947.502 127.062 947.502 129.017C947.502 130.973 947.879 132.684 948.634 134.151C949.409 135.617 950.47 136.758 951.817 137.573C953.163 138.388 954.704 138.795 956.438 138.795C958.193 138.795 959.733 138.388 961.059 137.573C962.406 136.758 963.457 135.617 964.212 134.151C964.987 132.684 965.375 130.973 965.375 129.017Z" fill="black"/>
<path d="M971.85 118.323H983.388C983.551 118.323 983.694 118.384 983.816 118.506C983.939 118.628 984 118.771 984 118.934C984 119.117 983.939 119.27 983.816 119.392C983.694 119.494 983.551 119.545 983.388 119.545H972.217L972.523 119.026V128.498L972.156 128.07H982.011C982.174 128.07 982.317 128.131 982.439 128.253C982.562 128.376 982.623 128.518 982.623 128.681C982.623 128.864 982.562 129.017 982.439 129.139C982.317 129.241 982.174 129.292 982.011 129.292H972.217L972.523 128.956V138.642L972.401 138.489H983.388C983.551 138.489 983.694 138.551 983.816 138.673C983.939 138.795 984 138.938 984 139.101C984 139.284 983.939 139.437 983.816 139.559C983.694 139.661 983.551 139.712 983.388 139.712H971.85C971.687 139.712 971.544 139.651 971.421 139.528C971.299 139.406 971.238 139.264 971.238 139.101V118.934C971.238 118.771 971.299 118.628 971.421 118.506C971.544 118.384 971.687 118.323 971.85 118.323Z" fill="black"/>
<path d="M174.957 124.729H238.634V140.32H159.037V109.138H174.957V124.729Z" fill="black"/>
<path d="M270.473 124.729H302.311V140.32H254.553V109.138H270.473V124.729Z" fill="black"/>
<path d="M397.828 140.32H318.231V109.138H334.15V124.729H381.908V109.138H397.828V140.32Z" fill="black"/>
<path d="M429.666 140.32H413.747V109.138H429.666V140.32Z" fill="black"/>
<path d="M525.182 140.32H509.263V109.138H525.182V140.32Z" fill="black"/>
<path d="M652.537 140.32H572.94V124.729H652.537V140.32Z" fill="black"/>
<path d="M684.376 140.32H668.456V109.138H684.376V140.32Z" fill="black"/>
<path d="M748.053 140.32H732.134V109.138H748.053V140.32Z" fill="black"/>
<path d="M779.892 124.729H811.731V140.32H763.973V109.138H779.892V124.729Z" fill="black"/>
<path d="M907.247 140.32H827.65V124.729H907.247V140.32Z" fill="black"/>
<path d="M238.634 15.5911H174.957V93.5467H159.037V0H238.634V15.5911Z" fill="black"/>
<path d="M302.311 15.5911H270.473V93.5467H254.553V0H302.311V15.5911Z" fill="black"/>
<path d="M334.15 93.5467H318.231V0H334.15V93.5467Z" fill="black"/>
<path d="M397.828 93.5467H381.908V0H397.828V93.5467Z" fill="black"/>
<path d="M493.344 15.5911H429.666V93.5467H413.747V0H493.344V15.5911Z" fill="black"/>
<path d="M557.021 15.5911H525.182V93.5467H509.263V0H557.021V15.5911Z" fill="black"/>
<path d="M748.053 93.5467H732.134V15.5911H684.376V93.5467H668.456V0H748.053V93.5467Z" fill="black"/>
<path d="M811.731 15.5911H779.892V93.5467H763.973V0H811.731V15.5911Z" fill="black"/>
<path d="M652.537 77.9556H588.86V62.3644H652.537V77.9556Z" fill="black"/>
<path d="M891.327 77.9556H827.65V62.3644H891.327V77.9556Z" fill="black"/>
<path d="M652.537 15.5911H572.94V0H652.537V15.5911Z" fill="black"/>
<path d="M907.247 15.5911H827.65V0H907.247V15.5911Z" fill="black"/>
<path d="M32 92.6839H64V77.2394H80L112 92.6839V108.128H32V92.6839Z" fill="url(#paint0_linear_8707_24)"/>
<path fill-rule="evenodd" clip-rule="evenodd" d="M144 139.017H0V0.0172119H144V139.017ZM16 123.573H128V15.4617H16V123.573Z" fill="url(#paint1_linear_8707_24)"/>
<defs>
<linearGradient id="paint0_linear_8707_24" x1="11.5" y1="-2.89793e-06" x2="144" y2="153.5" gradientUnits="userSpaceOnUse">
<stop stop-color="#FF7428"/>
<stop offset="1" stop-color="#FFAE00"/>
</linearGradient>
<linearGradient id="paint1_linear_8707_24" x1="11.5" y1="-2.89793e-06" x2="144" y2="153.5" gradientUnits="userSpaceOnUse">
<stop stop-color="#FF7428"/>
<stop offset="1" stop-color="#FFAE00"/>
</linearGradient>
</defs>
</svg>
