<svg width="984" height="190" viewBox="0 0 984 190" fill="none" xmlns="http://www.w3.org/2000/svg">
<path d="M14.208 146.696L5.568 182.792H1.184L9.824 146.696H14.208ZM29.7705 146.696L21.1305 182.792H16.7465L25.3865 146.696H29.7705ZM39.87 165.8C39.87 163.603 40.3607 161.64 41.342 159.912C42.3447 158.163 43.6993 156.808 45.406 155.848C47.134 154.867 49.0647 154.376 51.198 154.376C53.694 154.376 55.8807 155.016 57.758 156.296C59.6353 157.576 60.9473 159.347 61.694 161.608H56.542C56.03 160.541 55.3047 159.741 54.366 159.208C53.4487 158.675 52.382 158.408 51.166 158.408C49.8647 158.408 48.702 158.717 47.678 159.336C46.6753 159.933 45.886 160.787 45.31 161.896C44.7553 163.005 44.478 164.307 44.478 165.8C44.478 167.272 44.7553 168.573 45.31 169.704C45.886 170.813 46.6753 171.677 47.678 172.296C48.702 172.893 49.8647 173.192 51.166 173.192C52.382 173.192 53.4487 172.925 54.366 172.392C55.3047 171.837 56.03 171.027 56.542 169.96H61.694C60.9473 172.243 59.6353 174.024 57.758 175.304C55.902 176.563 53.7153 177.192 51.198 177.192C49.0647 177.192 47.134 176.712 45.406 175.752C43.6993 174.771 42.3447 173.416 41.342 171.688C40.3607 169.96 39.87 167.997 39.87 165.8ZM73.3925 177.288C71.6858 177.288 70.1498 176.915 68.7845 176.168C67.4192 175.4 66.3418 174.323 65.5525 172.936C64.7845 171.549 64.4005 169.949 64.4005 168.136C64.4005 166.323 64.7952 164.723 65.5845 163.336C66.3952 161.949 67.4938 160.883 68.8805 160.136C70.2672 159.368 71.8138 158.984 73.5205 158.984C75.2272 158.984 76.7738 159.368 78.1605 160.136C79.5472 160.883 80.6352 161.949 81.4245 163.336C82.2352 164.723 82.6405 166.323 82.6405 168.136C82.6405 169.949 82.2245 171.549 81.3925 172.936C80.5818 174.323 79.4725 175.4 78.0645 176.168C76.6778 176.915 75.1205 177.288 73.3925 177.288ZM73.3925 173.384C74.2032 173.384 74.9605 173.192 75.6645 172.808C76.3898 172.403 76.9658 171.805 77.3925 171.016C77.8192 170.227 78.0325 169.267 78.0325 168.136C78.0325 166.451 77.5845 165.16 76.6885 164.264C75.8138 163.347 74.7365 162.888 73.4565 162.888C72.1765 162.888 71.0992 163.347 70.2245 164.264C69.3712 165.16 68.9445 166.451 68.9445 168.136C68.9445 169.821 69.3605 171.123 70.1925 172.04C71.0458 172.936 72.1125 173.384 73.3925 173.384ZM107.943 159.016C110.119 159.016 111.868 159.688 113.191 161.032C114.535 162.355 115.207 164.211 115.207 166.6V177H110.727V167.208C110.727 165.821 110.375 164.765 109.671 164.04C108.967 163.293 108.007 162.92 106.791 162.92C105.575 162.92 104.604 163.293 103.879 164.04C103.175 164.765 102.823 165.821 102.823 167.208V177H98.3428V167.208C98.3428 165.821 97.9908 164.765 97.2868 164.04C96.5828 163.293 95.6228 162.92 94.4068 162.92C93.1694 162.92 92.1881 163.293 91.4628 164.04C90.7588 164.765 90.4068 165.821 90.4068 167.208V177H85.9268V159.272H90.4068V161.416C90.9828 160.669 91.7188 160.083 92.6148 159.656C93.5321 159.229 94.5348 159.016 95.6228 159.016C97.0094 159.016 98.2468 159.315 99.3348 159.912C100.423 160.488 101.265 161.32 101.863 162.408C102.439 161.384 103.271 160.563 104.359 159.944C105.468 159.325 106.663 159.016 107.943 159.016ZM121.73 157.16C120.941 157.16 120.279 156.915 119.746 156.424C119.234 155.912 118.978 155.283 118.978 154.536C118.978 153.789 119.234 153.171 119.746 152.68C120.279 152.168 120.941 151.912 121.73 151.912C122.519 151.912 123.17 152.168 123.682 152.68C124.215 153.171 124.482 153.789 124.482 154.536C124.482 155.283 124.215 155.912 123.682 156.424C123.17 156.915 122.519 157.16 121.73 157.16ZM123.938 159.272V177H119.458V159.272H123.938ZM138.188 159.016C140.3 159.016 142.007 159.688 143.308 161.032C144.61 162.355 145.26 164.211 145.26 166.6V177H140.78V167.208C140.78 165.8 140.428 164.723 139.724 163.976C139.02 163.208 138.06 162.824 136.844 162.824C135.607 162.824 134.626 163.208 133.9 163.976C133.196 164.723 132.844 165.8 132.844 167.208V177H128.364V159.272H132.844V161.48C133.442 160.712 134.199 160.115 135.116 159.688C136.055 159.24 137.079 159.016 138.188 159.016ZM156.465 158.984C157.787 158.984 158.95 159.251 159.953 159.784C160.955 160.296 161.745 160.968 162.321 161.8V159.272H166.833V177.128C166.833 178.771 166.502 180.232 165.841 181.512C165.179 182.813 164.187 183.837 162.865 184.584C161.542 185.352 159.942 185.736 158.065 185.736C155.547 185.736 153.478 185.149 151.857 183.976C150.257 182.803 149.35 181.203 149.137 179.176H153.585C153.819 179.987 154.321 180.627 155.089 181.096C155.878 181.587 156.827 181.832 157.937 181.832C159.238 181.832 160.294 181.437 161.105 180.648C161.915 179.88 162.321 178.707 162.321 177.128V174.376C161.745 175.208 160.945 175.901 159.921 176.456C158.918 177.011 157.766 177.288 156.465 177.288C154.971 177.288 153.606 176.904 152.369 176.136C151.131 175.368 150.15 174.291 149.424 172.904C148.72 171.496 148.368 169.885 148.368 168.072C148.368 166.28 148.72 164.691 149.424 163.304C150.15 161.917 151.121 160.851 152.337 160.104C153.574 159.357 154.95 158.984 156.465 158.984ZM162.321 168.136C162.321 167.048 162.107 166.12 161.681 165.352C161.254 164.563 160.678 163.965 159.953 163.56C159.227 163.133 158.449 162.92 157.617 162.92C156.785 162.92 156.017 163.123 155.312 163.528C154.609 163.933 154.033 164.531 153.585 165.32C153.158 166.088 152.945 167.005 152.945 168.072C152.945 169.139 153.158 170.077 153.585 170.888C154.033 171.677 154.609 172.285 155.312 172.712C156.038 173.139 156.806 173.352 157.617 173.352C158.449 173.352 159.227 173.149 159.953 172.744C160.678 172.317 161.254 171.72 161.681 170.952C162.107 170.163 162.321 169.224 162.321 168.136ZM186.545 177.224C184.988 177.224 183.58 176.957 182.321 176.424C181.084 175.891 180.102 175.123 179.377 174.12C178.652 173.117 178.278 171.933 178.257 170.568H183.057C183.121 171.485 183.441 172.211 184.017 172.744C184.614 173.277 185.425 173.544 186.449 173.544C187.494 173.544 188.316 173.299 188.913 172.808C189.51 172.296 189.809 171.635 189.809 170.824C189.809 170.163 189.606 169.619 189.201 169.192C188.796 168.765 188.284 168.435 187.665 168.2C187.068 167.944 186.236 167.667 185.169 167.368C183.718 166.941 182.534 166.525 181.617 166.12C180.721 165.693 179.942 165.064 179.281 164.232C178.641 163.379 178.321 162.248 178.321 160.84C178.321 159.517 178.652 158.365 179.313 157.384C179.974 156.403 180.902 155.656 182.097 155.144C183.292 154.611 184.657 154.344 186.193 154.344C188.497 154.344 190.364 154.909 191.793 156.04C193.244 157.149 194.044 158.707 194.193 160.712H189.265C189.222 159.944 188.892 159.315 188.273 158.824C187.676 158.312 186.876 158.056 185.873 158.056C184.998 158.056 184.294 158.28 183.761 158.728C183.249 159.176 182.993 159.827 182.993 160.68C182.993 161.277 183.185 161.779 183.569 162.184C183.974 162.568 184.465 162.888 185.041 163.144C185.638 163.379 186.47 163.656 187.537 163.976C188.988 164.403 190.172 164.829 191.089 165.256C192.006 165.683 192.796 166.323 193.457 167.176C194.118 168.029 194.449 169.149 194.449 170.536C194.449 171.731 194.14 172.84 193.521 173.864C192.902 174.888 191.996 175.709 190.801 176.328C189.606 176.925 188.188 177.224 186.545 177.224ZM206.205 177.288C204.498 177.288 202.962 176.915 201.597 176.168C200.232 175.4 199.154 174.323 198.365 172.936C197.597 171.549 197.213 169.949 197.213 168.136C197.213 166.323 197.608 164.723 198.397 163.336C199.208 161.949 200.306 160.883 201.693 160.136C203.08 159.368 204.626 158.984 206.333 158.984C208.04 158.984 209.586 159.368 210.973 160.136C212.36 160.883 213.448 161.949 214.237 163.336C215.048 164.723 215.453 166.323 215.453 168.136C215.453 169.949 215.037 171.549 214.205 172.936C213.394 174.323 212.285 175.4 210.877 176.168C209.49 176.915 207.933 177.288 206.205 177.288ZM206.205 173.384C207.016 173.384 207.773 173.192 208.477 172.808C209.202 172.403 209.778 171.805 210.205 171.016C210.632 170.227 210.845 169.267 210.845 168.136C210.845 166.451 210.397 165.16 209.501 164.264C208.626 163.347 207.549 162.888 206.269 162.888C204.989 162.888 203.912 163.347 203.037 164.264C202.184 165.16 201.757 166.451 201.757 168.136C201.757 169.821 202.173 171.123 203.005 172.04C203.858 172.936 204.925 173.384 206.205 173.384ZM226.611 177.288C224.905 177.288 223.369 176.915 222.003 176.168C220.638 175.4 219.561 174.323 218.771 172.936C218.003 171.549 217.619 169.949 217.619 168.136C217.619 166.323 218.014 164.723 218.803 163.336C219.614 161.949 220.713 160.883 222.099 160.136C223.486 159.368 225.033 158.984 226.739 158.984C228.446 158.984 229.993 159.368 231.379 160.136C232.766 160.883 233.854 161.949 234.643 163.336C235.454 164.723 235.859 166.323 235.859 168.136C235.859 169.949 235.443 171.549 234.611 172.936C233.801 174.323 232.691 175.4 231.283 176.168C229.897 176.915 228.339 177.288 226.611 177.288ZM226.611 173.384C227.422 173.384 228.179 173.192 228.883 172.808C229.609 172.403 230.185 171.805 230.611 171.016C231.038 170.227 231.251 169.267 231.251 168.136C231.251 166.451 230.803 165.16 229.907 164.264C229.033 163.347 227.955 162.888 226.675 162.888C225.395 162.888 224.318 163.347 223.443 164.264C222.59 165.16 222.163 166.451 222.163 168.136C222.163 169.821 222.579 171.123 223.411 172.04C224.265 172.936 225.331 173.384 226.611 173.384ZM248.97 159.016C251.082 159.016 252.788 159.688 254.09 161.032C255.391 162.355 256.042 164.211 256.042 166.6V177H251.562V167.208C251.562 165.8 251.21 164.723 250.506 163.976C249.802 163.208 248.842 162.824 247.626 162.824C246.388 162.824 245.407 163.208 244.682 163.976C243.978 164.723 243.626 165.8 243.626 167.208V177H239.146V159.272H243.626V161.48C244.223 160.712 244.98 160.115 245.898 159.688C246.836 159.24 247.86 159.016 248.97 159.016Z" fill="black"/>
<path d="M916.826 141.032C916.561 141.032 916.357 140.94 916.214 140.757C916.071 140.573 916 140.349 916 140.085V139.382C916 139.097 916.071 138.872 916.214 138.71C916.357 138.526 916.561 138.435 916.826 138.435H916.949C917.234 138.435 917.438 138.526 917.561 138.71C917.704 138.872 917.775 139.097 917.775 139.382V140.085C917.775 140.349 917.704 140.573 917.561 140.757C917.438 140.94 917.234 141.032 916.949 141.032H916.826Z" fill="black"/>
<path d="M922.953 119.643C923.055 119.643 923.158 119.663 923.26 119.704C923.362 119.745 923.453 119.816 923.535 119.918L932.319 132.965H931.706L940.49 119.918C940.653 119.694 940.847 119.602 941.071 119.643C941.235 119.663 941.367 119.735 941.469 119.857C941.571 119.959 941.622 120.091 941.622 120.254V140.421C941.622 140.584 941.551 140.726 941.408 140.848C941.286 140.971 941.143 141.032 940.98 141.032C940.796 141.032 940.643 140.971 940.521 140.848C940.398 140.726 940.337 140.584 940.337 140.421V121.629H940.674L932.441 134.065C932.4 134.147 932.339 134.208 932.257 134.248C932.196 134.289 932.114 134.31 932.012 134.31C931.91 134.31 931.808 134.289 931.706 134.248C931.625 134.208 931.564 134.147 931.523 134.065L923.107 121.385H923.596V140.421C923.596 140.584 923.535 140.726 923.413 140.848C923.29 140.971 923.147 141.032 922.984 141.032C922.8 141.032 922.647 140.971 922.525 140.848C922.423 140.726 922.372 140.584 922.372 140.421V120.254C922.372 120.111 922.423 119.979 922.525 119.857C922.627 119.714 922.77 119.643 922.953 119.643Z" fill="black"/>
<path d="M966.66 130.337C966.66 131.967 966.405 133.454 965.895 134.798C965.405 136.143 964.701 137.304 963.783 138.282C962.865 139.26 961.784 140.013 960.539 140.543C959.295 141.072 957.928 141.337 956.438 141.337C954.949 141.337 953.582 141.072 952.337 140.543C951.092 140.013 950.011 139.26 949.093 138.282C948.175 137.304 947.461 136.143 946.951 134.798C946.461 133.454 946.216 131.967 946.216 130.337C946.216 128.708 946.461 127.221 946.951 125.876C947.461 124.532 948.175 123.371 949.093 122.393C950.011 121.415 951.092 120.661 952.337 120.132C953.582 119.602 954.949 119.337 956.438 119.337C957.928 119.337 959.295 119.602 960.539 120.132C961.784 120.661 962.865 121.415 963.783 122.393C964.701 123.371 965.405 124.532 965.895 125.876C966.405 127.221 966.66 128.708 966.66 130.337ZM965.375 130.337C965.375 128.382 964.987 126.671 964.212 125.204C963.457 123.737 962.406 122.597 961.059 121.782C959.733 120.967 958.193 120.56 956.438 120.56C954.704 120.56 953.163 120.967 951.817 121.782C950.47 122.597 949.409 123.737 948.634 125.204C947.879 126.671 947.502 128.382 947.502 130.337C947.502 132.293 947.879 134.004 948.634 135.471C949.409 136.937 950.47 138.078 951.817 138.893C953.163 139.708 954.704 140.115 956.438 140.115C958.193 140.115 959.733 139.708 961.059 138.893C962.406 138.078 963.457 136.937 964.212 135.471C964.987 134.004 965.375 132.293 965.375 130.337Z" fill="black"/>
<path d="M971.85 119.643H983.388C983.551 119.643 983.694 119.704 983.816 119.826C983.939 119.948 984 120.091 984 120.254C984 120.437 983.939 120.59 983.816 120.712C983.694 120.814 983.551 120.865 983.388 120.865H972.217L972.523 120.346V129.818L972.156 129.39H982.011C982.174 129.39 982.317 129.451 982.439 129.573C982.562 129.696 982.623 129.838 982.623 130.001C982.623 130.185 982.562 130.337 982.439 130.46C982.317 130.561 982.174 130.612 982.011 130.612H972.217L972.523 130.276V139.962L972.401 139.81H983.388C983.551 139.81 983.694 139.871 983.816 139.993C983.939 140.115 984 140.258 984 140.421C984 140.604 983.939 140.757 983.816 140.879C983.694 140.981 983.551 141.032 983.388 141.032H971.85C971.687 141.032 971.544 140.971 971.421 140.848C971.299 140.726 971.238 140.584 971.238 140.421V120.254C971.238 120.091 971.299 119.948 971.421 119.826C971.544 119.704 971.687 119.643 971.85 119.643Z" fill="black"/>
<path d="M174.957 126.049H238.634V141.64H159.037V110.458H174.957V126.049Z" fill="black"/>
<path d="M270.473 126.049H302.311V141.64H254.553V110.458H270.473V126.049Z" fill="black"/>
<path d="M397.828 141.64H318.231V110.458H334.15V126.049H381.908V110.458H397.828V141.64Z" fill="black"/>
<path d="M429.666 141.64H413.747V110.458H429.666V141.64Z" fill="black"/>
<path d="M525.182 141.64H509.263V110.458H525.182V141.64Z" fill="black"/>
<path d="M652.537 141.64H572.94V126.049H652.537V141.64Z" fill="black"/>
<path d="M684.376 141.64H668.456V110.458H684.376V141.64Z" fill="black"/>
<path d="M748.053 141.64H732.134V110.458H748.053V141.64Z" fill="black"/>
<path d="M779.892 126.049H811.731V141.64H763.973V110.458H779.892V126.049Z" fill="black"/>
<path d="M907.247 141.64H827.65V126.049H907.247V141.64Z" fill="black"/>
<path d="M238.634 16.9112H174.957V94.8667H159.037V1.32007H238.634V16.9112Z" fill="black"/>
<path d="M302.311 16.9112H270.473V94.8667H254.553V1.32007H302.311V16.9112Z" fill="black"/>
<path d="M334.15 94.8667H318.231V1.32007H334.15V94.8667Z" fill="black"/>
<path d="M397.828 94.8667H381.908V1.32007H397.828V94.8667Z" fill="black"/>
<path d="M493.344 16.9112H429.666V94.8667H413.747V1.32007H493.344V16.9112Z" fill="black"/>
<path d="M557.021 16.9112H525.182V94.8667H509.263V1.32007H557.021V16.9112Z" fill="black"/>
<path d="M748.053 94.8667H732.134V16.9112H684.376V94.8667H668.456V1.32007H748.053V94.8667Z" fill="black"/>
<path d="M811.731 16.9112H779.892V94.8667H763.973V1.32007H811.731V16.9112Z" fill="black"/>
<path d="M652.537 79.2756H588.86V63.6845H652.537V79.2756Z" fill="black"/>
<path d="M891.327 79.2756H827.65V63.6845H891.327V79.2756Z" fill="black"/>
<path d="M652.537 16.9112H572.94V1.32007H652.537V16.9112Z" fill="black"/>
<path d="M907.247 16.9112H827.65V1.32007H907.247V16.9112Z" fill="black"/>
<path d="M32 94.0039H64V78.5595H80L112 94.0039V109.448H32V94.0039Z" fill="url(#paint0_linear_142_257)"/>
<path fill-rule="evenodd" clip-rule="evenodd" d="M144 140.337H0V1.33728H144V140.337ZM16 124.893H128V16.7817H16V124.893Z" fill="url(#paint1_linear_142_257)"/>
<g opacity="0.1">
<path d="M916.826 139.712C916.561 139.712 916.357 139.62 916.214 139.437C916.071 139.253 916 139.029 916 138.764V138.062C916 137.776 916.071 137.552 916.214 137.389C916.357 137.206 916.561 137.114 916.826 137.114H916.949C917.234 137.114 917.438 137.206 917.561 137.389C917.704 137.552 917.775 137.776 917.775 138.062V138.764C917.775 139.029 917.704 139.253 917.561 139.437C917.438 139.62 917.234 139.712 916.949 139.712H916.826Z" fill="black"/>
<path d="M922.953 118.323C923.055 118.323 923.158 118.343 923.26 118.384C923.362 118.425 923.453 118.496 923.535 118.598L932.319 131.645H931.706L940.49 118.598C940.653 118.374 940.847 118.282 941.071 118.323C941.235 118.343 941.367 118.414 941.469 118.537C941.571 118.639 941.622 118.771 941.622 118.934V139.101C941.622 139.264 941.551 139.406 941.408 139.528C941.286 139.651 941.143 139.712 940.98 139.712C940.796 139.712 940.643 139.651 940.521 139.528C940.398 139.406 940.337 139.264 940.337 139.101V120.309H940.674L932.441 132.745C932.4 132.826 932.339 132.888 932.257 132.928C932.196 132.969 932.114 132.989 932.012 132.989C931.91 132.989 931.808 132.969 931.706 132.928C931.625 132.888 931.564 132.826 931.523 132.745L923.107 120.064H923.596V139.101C923.596 139.264 923.535 139.406 923.413 139.528C923.29 139.651 923.147 139.712 922.984 139.712C922.8 139.712 922.647 139.651 922.525 139.528C922.423 139.406 922.372 139.264 922.372 139.101V118.934C922.372 118.791 922.423 118.659 922.525 118.537C922.627 118.394 922.77 118.323 922.953 118.323Z" fill="black"/>
<path d="M966.66 129.017C966.66 130.647 966.405 132.134 965.895 133.478C965.405 134.823 964.701 135.984 963.783 136.962C962.865 137.939 961.784 138.693 960.539 139.223C959.295 139.752 957.928 140.017 956.438 140.017C954.949 140.017 953.582 139.752 952.337 139.223C951.092 138.693 950.011 137.939 949.093 136.962C948.175 135.984 947.461 134.823 946.951 133.478C946.461 132.134 946.216 130.647 946.216 129.017C946.216 127.388 946.461 125.901 946.951 124.556C947.461 123.212 948.175 122.051 949.093 121.073C950.011 120.095 951.092 119.341 952.337 118.812C953.582 118.282 954.949 118.017 956.438 118.017C957.928 118.017 959.295 118.282 960.539 118.812C961.784 119.341 962.865 120.095 963.783 121.073C964.701 122.051 965.405 123.212 965.895 124.556C966.405 125.901 966.66 127.388 966.66 129.017ZM965.375 129.017C965.375 127.062 964.987 125.351 964.212 123.884C963.457 122.417 962.406 121.276 961.059 120.462C959.733 119.647 958.193 119.239 956.438 119.239C954.704 119.239 953.163 119.647 951.817 120.462C950.47 121.276 949.409 122.417 948.634 123.884C947.879 125.351 947.502 127.062 947.502 129.017C947.502 130.973 947.879 132.684 948.634 134.151C949.409 135.617 950.47 136.758 951.817 137.573C953.163 138.388 954.704 138.795 956.438 138.795C958.193 138.795 959.733 138.388 961.059 137.573C962.406 136.758 963.457 135.617 964.212 134.151C964.987 132.684 965.375 130.973 965.375 129.017Z" fill="black"/>
<path d="M971.85 118.323H983.388C983.551 118.323 983.694 118.384 983.816 118.506C983.939 118.628 984 118.771 984 118.934C984 119.117 983.939 119.27 983.816 119.392C983.694 119.494 983.551 119.545 983.388 119.545H972.217L972.523 119.026V128.498L972.156 128.07H982.011C982.174 128.07 982.317 128.131 982.439 128.253C982.562 128.376 982.623 128.518 982.623 128.681C982.623 128.864 982.562 129.017 982.439 129.139C982.317 129.241 982.174 129.292 982.011 129.292H972.217L972.523 128.956V138.642L972.401 138.489H983.388C983.551 138.489 983.694 138.551 983.816 138.673C983.939 138.795 984 138.938 984 139.101C984 139.284 983.939 139.437 983.816 139.559C983.694 139.661 983.551 139.712 983.388 139.712H971.85C971.687 139.712 971.544 139.651 971.421 139.528C971.299 139.406 971.238 139.264 971.238 139.101V118.934C971.238 118.771 971.299 118.628 971.421 118.506C971.544 118.384 971.687 118.323 971.85 118.323Z" fill="black"/>
<path d="M174.957 124.729H238.634V140.32H159.037V109.138H174.957V124.729Z" fill="black"/>
<path d="M270.473 124.729H302.311V140.32H254.553V109.138H270.473V124.729Z" fill="black"/>
<path d="M397.828 140.32H318.231V109.138H334.15V124.729H381.908V109.138H397.828V140.32Z" fill="black"/>
<path d="M429.666 140.32H413.747V109.138H429.666V140.32Z" fill="black"/>
<path d="M525.182 140.32H509.263V109.138H525.182V140.32Z" fill="black"/>
<path d="M652.537 140.32H572.94V124.729H652.537V140.32Z" fill="black"/>
<path d="M684.376 140.32H668.456V109.138H684.376V140.32Z" fill="black"/>
<path d="M748.053 140.32H732.134V109.138H748.053V140.32Z" fill="black"/>
<path d="M779.892 124.729H811.731V140.32H763.973V109.138H779.892V124.729Z" fill="black"/>
<path d="M907.247 140.32H827.65V124.729H907.247V140.32Z" fill="black"/>
<path d="M238.634 15.5911H174.957V93.5467H159.037V0H238.634V15.5911Z" fill="black"/>
<path d="M302.311 15.5911H270.473V93.5467H254.553V0H302.311V15.5911Z" fill="black"/>
<path d="M334.15 93.5467H318.231V0H334.15V93.5467Z" fill="black"/>
<path d="M397.828 93.5467H381.908V0H397.828V93.5467Z" fill="black"/>
<path d="M493.344 15.5911H429.666V93.5467H413.747V0H493.344V15.5911Z" fill="black"/>
<path d="M557.021 15.5911H525.182V93.5467H509.263V0H557.021V15.5911Z" fill="black"/>
<path d="M748.053 93.5467H732.134V15.5911H684.376V93.5467H668.456V0H748.053V93.5467Z" fill="black"/>
<path d="M811.731 15.5911H779.892V93.5467H763.973V0H811.731V15.5911Z" fill="black"/>
<path d="M652.537 77.9556H588.86V62.3644H652.537V77.9556Z" fill="black"/>
<path d="M891.327 77.9556H827.65V62.3644H891.327V77.9556Z" fill="black"/>
<path d="M652.537 15.5911H572.94V0H652.537V15.5911Z" fill="black"/>
<path d="M907.247 15.5911H827.65V0H907.247V15.5911Z" fill="black"/>
<path d="M32 92.6839H64V77.2394H80L112 92.6839V108.128H32V92.6839Z" fill="url(#paint2_linear_142_257)"/>
<path fill-rule="evenodd" clip-rule="evenodd" d="M144 139.017H0V0.0172119H144V139.017ZM16 123.573H128V15.4617H16V123.573Z" fill="url(#paint3_linear_142_257)"/>
</g>
<defs>
<linearGradient id="paint0_linear_142_257" x1="11.5" y1="1.32007" x2="144" y2="154.82" gradientUnits="userSpaceOnUse">
<stop stop-color="#FF7428"/>
<stop offset="1" stop-color="#FFAE00"/>
</linearGradient>
<linearGradient id="paint1_linear_142_257" x1="11.5" y1="1.32007" x2="144" y2="154.82" gradientUnits="userSpaceOnUse">
<stop stop-color="#FF7428"/>
<stop offset="1" stop-color="#FFAE00"/>
</linearGradient>
<linearGradient id="paint2_linear_142_257" x1="11.5" y1="-2.89793e-06" x2="144" y2="153.5" gradientUnits="userSpaceOnUse">
<stop stop-color="#FF7428"/>
<stop offset="1" stop-color="#FFAE00"/>
</linearGradient>
<linearGradient id="paint3_linear_142_257" x1="11.5" y1="-2.89793e-06" x2="144" y2="153.5" gradientUnits="userSpaceOnUse">
<stop stop-color="#FF7428"/>
<stop offset="1" stop-color="#FFAE00"/>
</linearGradient>
</defs>
</svg>
